M48
; DRILL file {KiCad 5.1.12} date Ср 29 дек 2021 22:49:33
; FORMAT={-:-/ absolute / inch / decimal}
; #@! TF.CreationDate,2021-12-29T22:49:33+01:00
; #@! TF.GenerationSoftware,Kicad,Pcbnew,5.1.12
; #@! TF.FileFunction,Plated,1,2,PTH
FMAT,2
INCH
T1C0.0217
T2C0.0276
T3C0.0315
T4C0.0354
T5C0.0394
T6C0.0630
%
G90
G05
T1
X4.5866Y-3.8409
X4.5866Y-4.0409
X5.1772Y-3.8661
X5.1772Y-4.0157
T2
X4.075Y-3.675
X4.075Y-3.975
X4.37Y-4.49
X4.37Y-4.79
X4.4488Y-3.637
X4.4488Y-3.937
X4.45Y-4.04
X4.45Y-4.34
X4.945Y-4.255
X5.245Y-4.255
X5.2756Y-3.6417
X5.2756Y-3.9417
X5.332Y-4.62
X5.3937Y-3.6417
X5.3937Y-3.9417
X5.632Y-4.62
T3
X4.24Y-3.9716
X4.24Y-4.07
X4.3Y-4.2
X4.3Y-4.3
X4.3Y-4.4
X4.7416Y-4.16
X4.84Y-4.16
X5.185Y-4.4066
X5.185Y-4.505
X5.3665Y-4.1882
X5.3665Y-4.2882
X5.3665Y-4.3882
T4
X4.61Y-4.36
X5.01Y-4.36
T5
X3.848Y-4.2956
X3.848Y-4.394
X3.848Y-4.6276
X3.848Y-4.726
X5.604Y-3.5816
X5.604Y-3.68
X5.6076Y-3.95
X5.6076Y-4.482
X5.608Y-4.216
X5.706Y-3.95
X5.706Y-4.482
X5.7064Y-4.216
T6
X3.8333Y-3.7774
X3.8333Y-3.9152
X3.8333Y-4.053
X4.5844Y-4.6
X4.7222Y-4.6
X4.86Y-4.6
T0
M30
