%FSLAX45Y45*%
G04 Gerber Fmt 4.5, Leading zero omitted, Abs format (unit mm)*
G04 Created by KiCad (PCBNEW 5.1.12) date 2021-12-29 22:49:32*
%MOMM*%
%LPD*%
G01*
G04 APERTURE LIST*
%TA.AperFunction,Profile*%
%ADD10C,0.050000*%
%TD*%
%ADD11C,0.200000*%
%ADD12C,0.300000*%
G04 APERTURE END LIST*
D10*
X14981554Y-12291060D02*
G75*
G03*
X14981554Y-12291060I-158114J0D01*
G01*
X14981554Y-8912860D02*
G75*
G03*
X14981554Y-8912860I-158114J0D01*
G01*
X8737600Y-8549640D02*
X8737600Y-12649200D01*
X15240000Y-8549640D02*
X8737600Y-8549640D01*
X15240000Y-12649200D02*
X15240000Y-8550000D01*
X8737600Y-12649200D02*
X15240000Y-12649200D01*
X9332594Y-8912860D02*
G75*
G03*
X9332594Y-8912860I-158114J0D01*
G01*
X9332594Y-12291060D02*
G75*
G03*
X9332594Y-12291060I-158114J0D01*
G01*
D11*
D12*
X9021528Y-13117414D02*
X9021528Y-12817414D01*
X9092957Y-12817414D01*
X9135814Y-12831700D01*
X9164386Y-12860271D01*
X9178671Y-12888843D01*
X9192957Y-12945986D01*
X9192957Y-12988843D01*
X9178671Y-13045986D01*
X9164386Y-13074557D01*
X9135814Y-13103129D01*
X9092957Y-13117414D01*
X9021528Y-13117414D01*
X9321528Y-13117414D02*
X9321528Y-12917414D01*
X9321528Y-12974557D02*
X9335814Y-12945986D01*
X9350100Y-12931700D01*
X9378671Y-12917414D01*
X9407243Y-12917414D01*
X9507243Y-13117414D02*
X9507243Y-12917414D01*
X9507243Y-12817414D02*
X9492957Y-12831700D01*
X9507243Y-12845986D01*
X9521528Y-12831700D01*
X9507243Y-12817414D01*
X9507243Y-12845986D01*
X9692957Y-13117414D02*
X9664386Y-13103129D01*
X9650100Y-13074557D01*
X9650100Y-12817414D01*
X9850100Y-13117414D02*
X9821528Y-13103129D01*
X9807243Y-13074557D01*
X9807243Y-12817414D01*
X10192957Y-13117414D02*
X10192957Y-12817414D01*
X10292957Y-13031700D01*
X10392957Y-12817414D01*
X10392957Y-13117414D01*
X10664386Y-13117414D02*
X10664386Y-12960271D01*
X10650100Y-12931700D01*
X10621528Y-12917414D01*
X10564386Y-12917414D01*
X10535814Y-12931700D01*
X10664386Y-13103129D02*
X10635814Y-13117414D01*
X10564386Y-13117414D01*
X10535814Y-13103129D01*
X10521528Y-13074557D01*
X10521528Y-13045986D01*
X10535814Y-13017414D01*
X10564386Y-13003129D01*
X10635814Y-13003129D01*
X10664386Y-12988843D01*
X10807243Y-12917414D02*
X10807243Y-13217414D01*
X10807243Y-12931700D02*
X10835814Y-12917414D01*
X10892957Y-12917414D01*
X10921528Y-12931700D01*
X10935814Y-12945986D01*
X10950100Y-12974557D01*
X10950100Y-13060271D01*
X10935814Y-13088843D01*
X10921528Y-13103129D01*
X10892957Y-13117414D01*
X10835814Y-13117414D01*
X10807243Y-13103129D01*
X11078671Y-13088843D02*
X11092957Y-13103129D01*
X11078671Y-13117414D01*
X11064386Y-13103129D01*
X11078671Y-13088843D01*
X11078671Y-13117414D01*
X11078671Y-12931700D02*
X11092957Y-12945986D01*
X11078671Y-12960271D01*
X11064386Y-12945986D01*
X11078671Y-12931700D01*
X11078671Y-12960271D01*
M02*
