%TF.GenerationSoftware,KiCad,Pcbnew,5.1.12*%
%TF.CreationDate,2021-12-29T22:49:18+01:00*%
%TF.ProjectId,AGC,4147432e-6b69-4636-9164-5f7063625858,rev?*%
%TF.SameCoordinates,Original*%
%TF.FileFunction,Legend,Top*%
%TF.FilePolarity,Positive*%
%FSLAX46Y46*%
G04 Gerber Fmt 4.6, Leading zero omitted, Abs format (unit mm)*
G04 Created by KiCad (PCBNEW 5.1.12) date 2021-12-29 22:49:18*
%MOMM*%
%LPD*%
G01*
G04 APERTURE LIST*
%ADD10C,0.150000*%
%ADD11C,0.300000*%
%ADD12C,0.120000*%
G04 APERTURE END LIST*
D10*
X150709380Y-106235142D02*
X150709380Y-106711333D01*
X151185571Y-106758952D01*
X151137952Y-106711333D01*
X151090333Y-106616095D01*
X151090333Y-106378000D01*
X151137952Y-106282761D01*
X151185571Y-106235142D01*
X151280809Y-106187523D01*
X151518904Y-106187523D01*
X151614142Y-106235142D01*
X151661761Y-106282761D01*
X151709380Y-106378000D01*
X151709380Y-106616095D01*
X151661761Y-106711333D01*
X151614142Y-106758952D01*
X151614142Y-105758952D02*
X151661761Y-105711333D01*
X151709380Y-105758952D01*
X151661761Y-105806571D01*
X151614142Y-105758952D01*
X151709380Y-105758952D01*
X151614142Y-105282761D02*
X151661761Y-105235142D01*
X151709380Y-105282761D01*
X151661761Y-105330380D01*
X151614142Y-105282761D01*
X151709380Y-105282761D01*
X151614142Y-104806571D02*
X151661761Y-104758952D01*
X151709380Y-104806571D01*
X151661761Y-104854190D01*
X151614142Y-104806571D01*
X151709380Y-104806571D01*
X151709380Y-103806571D02*
X151709380Y-104378000D01*
X151709380Y-104092285D02*
X150709380Y-104092285D01*
X150852238Y-104187523D01*
X150947476Y-104282761D01*
X150995095Y-104378000D01*
X150804619Y-103425619D02*
X150757000Y-103378000D01*
X150709380Y-103282761D01*
X150709380Y-103044666D01*
X150757000Y-102949428D01*
X150804619Y-102901809D01*
X150899857Y-102854190D01*
X150995095Y-102854190D01*
X151137952Y-102901809D01*
X151709380Y-103473238D01*
X151709380Y-102854190D01*
X150709380Y-102568476D02*
X151709380Y-102235142D01*
X150709380Y-101901809D01*
X151709380Y-101568476D02*
X150709380Y-101568476D01*
X150709380Y-101330380D01*
X150757000Y-101187523D01*
X150852238Y-101092285D01*
X150947476Y-101044666D01*
X151137952Y-100997047D01*
X151280809Y-100997047D01*
X151471285Y-101044666D01*
X151566523Y-101092285D01*
X151661761Y-101187523D01*
X151709380Y-101330380D01*
X151709380Y-101568476D01*
X151614142Y-99997047D02*
X151661761Y-100044666D01*
X151709380Y-100187523D01*
X151709380Y-100282761D01*
X151661761Y-100425619D01*
X151566523Y-100520857D01*
X151471285Y-100568476D01*
X151280809Y-100616095D01*
X151137952Y-100616095D01*
X150947476Y-100568476D01*
X150852238Y-100520857D01*
X150757000Y-100425619D01*
X150709380Y-100282761D01*
X150709380Y-100187523D01*
X150757000Y-100044666D01*
X150804619Y-99997047D01*
D11*
X118564571Y-88211000D02*
X119136000Y-88211000D01*
X118450285Y-88553857D02*
X118850285Y-87353857D01*
X119250285Y-88553857D01*
X120164571Y-87753857D02*
X120164571Y-88553857D01*
X119650285Y-87753857D02*
X119650285Y-88382428D01*
X119707428Y-88496714D01*
X119821714Y-88553857D01*
X119993142Y-88553857D01*
X120107428Y-88496714D01*
X120164571Y-88439571D01*
X121250285Y-88553857D02*
X121250285Y-87353857D01*
X121250285Y-88496714D02*
X121136000Y-88553857D01*
X120907428Y-88553857D01*
X120793142Y-88496714D01*
X120736000Y-88439571D01*
X120678857Y-88325285D01*
X120678857Y-87982428D01*
X120736000Y-87868142D01*
X120793142Y-87811000D01*
X120907428Y-87753857D01*
X121136000Y-87753857D01*
X121250285Y-87811000D01*
X121821714Y-88553857D02*
X121821714Y-87753857D01*
X121821714Y-87353857D02*
X121764571Y-87411000D01*
X121821714Y-87468142D01*
X121878857Y-87411000D01*
X121821714Y-87353857D01*
X121821714Y-87468142D01*
X122564571Y-88553857D02*
X122450285Y-88496714D01*
X122393142Y-88439571D01*
X122336000Y-88325285D01*
X122336000Y-87982428D01*
X122393142Y-87868142D01*
X122450285Y-87811000D01*
X122564571Y-87753857D01*
X122736000Y-87753857D01*
X122850285Y-87811000D01*
X122907428Y-87868142D01*
X122964571Y-87982428D01*
X122964571Y-88325285D01*
X122907428Y-88439571D01*
X122850285Y-88496714D01*
X122736000Y-88553857D01*
X122564571Y-88553857D01*
X124336000Y-88211000D02*
X124907428Y-88211000D01*
X124221714Y-88553857D02*
X124621714Y-87353857D01*
X125021714Y-88553857D01*
X126050285Y-87411000D02*
X125936000Y-87353857D01*
X125764571Y-87353857D01*
X125593142Y-87411000D01*
X125478857Y-87525285D01*
X125421714Y-87639571D01*
X125364571Y-87868142D01*
X125364571Y-88039571D01*
X125421714Y-88268142D01*
X125478857Y-88382428D01*
X125593142Y-88496714D01*
X125764571Y-88553857D01*
X125878857Y-88553857D01*
X126050285Y-88496714D01*
X126107428Y-88439571D01*
X126107428Y-88039571D01*
X125878857Y-88039571D01*
X127307428Y-88439571D02*
X127250285Y-88496714D01*
X127078857Y-88553857D01*
X126964571Y-88553857D01*
X126793142Y-88496714D01*
X126678857Y-88382428D01*
X126621714Y-88268142D01*
X126564571Y-88039571D01*
X126564571Y-87868142D01*
X126621714Y-87639571D01*
X126678857Y-87525285D01*
X126793142Y-87411000D01*
X126964571Y-87353857D01*
X127078857Y-87353857D01*
X127250285Y-87411000D01*
X127307428Y-87468142D01*
X127861714Y-122809857D02*
X127861714Y-121609857D01*
X128147428Y-121609857D01*
X128318857Y-121667000D01*
X128433142Y-121781285D01*
X128490285Y-121895571D01*
X128547428Y-122124142D01*
X128547428Y-122295571D01*
X128490285Y-122524142D01*
X128433142Y-122638428D01*
X128318857Y-122752714D01*
X128147428Y-122809857D01*
X127861714Y-122809857D01*
X129518857Y-122752714D02*
X129404571Y-122809857D01*
X129176000Y-122809857D01*
X129061714Y-122752714D01*
X129004571Y-122638428D01*
X129004571Y-122181285D01*
X129061714Y-122067000D01*
X129176000Y-122009857D01*
X129404571Y-122009857D01*
X129518857Y-122067000D01*
X129576000Y-122181285D01*
X129576000Y-122295571D01*
X129004571Y-122409857D01*
X129976000Y-122009857D02*
X130261714Y-122809857D01*
X130547428Y-122009857D01*
X131461714Y-122752714D02*
X131347428Y-122809857D01*
X131118857Y-122809857D01*
X131004571Y-122752714D01*
X130947428Y-122638428D01*
X130947428Y-122181285D01*
X131004571Y-122067000D01*
X131118857Y-122009857D01*
X131347428Y-122009857D01*
X131461714Y-122067000D01*
X131518857Y-122181285D01*
X131518857Y-122295571D01*
X130947428Y-122409857D01*
X132204571Y-122809857D02*
X132090285Y-122752714D01*
X132033142Y-122638428D01*
X132033142Y-121609857D01*
X132833142Y-122809857D02*
X132718857Y-122752714D01*
X132661714Y-122695571D01*
X132604571Y-122581285D01*
X132604571Y-122238428D01*
X132661714Y-122124142D01*
X132718857Y-122067000D01*
X132833142Y-122009857D01*
X133004571Y-122009857D01*
X133118857Y-122067000D01*
X133176000Y-122124142D01*
X133233142Y-122238428D01*
X133233142Y-122581285D01*
X133176000Y-122695571D01*
X133118857Y-122752714D01*
X133004571Y-122809857D01*
X132833142Y-122809857D01*
X133747428Y-122009857D02*
X133747428Y-123209857D01*
X133747428Y-122067000D02*
X133861714Y-122009857D01*
X134090285Y-122009857D01*
X134204571Y-122067000D01*
X134261714Y-122124142D01*
X134318857Y-122238428D01*
X134318857Y-122581285D01*
X134261714Y-122695571D01*
X134204571Y-122752714D01*
X134090285Y-122809857D01*
X133861714Y-122809857D01*
X133747428Y-122752714D01*
X135290285Y-122752714D02*
X135176000Y-122809857D01*
X134947428Y-122809857D01*
X134833142Y-122752714D01*
X134776000Y-122638428D01*
X134776000Y-122181285D01*
X134833142Y-122067000D01*
X134947428Y-122009857D01*
X135176000Y-122009857D01*
X135290285Y-122067000D01*
X135347428Y-122181285D01*
X135347428Y-122295571D01*
X134776000Y-122409857D01*
X136376000Y-122809857D02*
X136376000Y-121609857D01*
X136376000Y-122752714D02*
X136261714Y-122809857D01*
X136033142Y-122809857D01*
X135918857Y-122752714D01*
X135861714Y-122695571D01*
X135804571Y-122581285D01*
X135804571Y-122238428D01*
X135861714Y-122124142D01*
X135918857Y-122067000D01*
X136033142Y-122009857D01*
X136261714Y-122009857D01*
X136376000Y-122067000D01*
X137861714Y-122809857D02*
X137861714Y-121609857D01*
X137861714Y-122067000D02*
X137976000Y-122009857D01*
X138204571Y-122009857D01*
X138318857Y-122067000D01*
X138376000Y-122124142D01*
X138433142Y-122238428D01*
X138433142Y-122581285D01*
X138376000Y-122695571D01*
X138318857Y-122752714D01*
X138204571Y-122809857D01*
X137976000Y-122809857D01*
X137861714Y-122752714D01*
X138833142Y-122009857D02*
X139118857Y-122809857D01*
X139404571Y-122009857D02*
X139118857Y-122809857D01*
X139004571Y-123095571D01*
X138947428Y-123152714D01*
X138833142Y-123209857D01*
X127804571Y-124567000D02*
X128376000Y-124567000D01*
X127690285Y-124909857D02*
X128090285Y-123709857D01*
X128490285Y-124909857D01*
X128890285Y-124109857D02*
X128890285Y-124909857D01*
X128890285Y-124224142D02*
X128947428Y-124167000D01*
X129061714Y-124109857D01*
X129233142Y-124109857D01*
X129347428Y-124167000D01*
X129404571Y-124281285D01*
X129404571Y-124909857D01*
X130490285Y-124909857D02*
X130490285Y-123709857D01*
X130490285Y-124852714D02*
X130376000Y-124909857D01*
X130147428Y-124909857D01*
X130033142Y-124852714D01*
X129976000Y-124795571D01*
X129918857Y-124681285D01*
X129918857Y-124338428D01*
X129976000Y-124224142D01*
X130033142Y-124167000D01*
X130147428Y-124109857D01*
X130376000Y-124109857D01*
X130490285Y-124167000D01*
X131061714Y-124909857D02*
X131061714Y-124109857D01*
X131061714Y-124338428D02*
X131118857Y-124224142D01*
X131176000Y-124167000D01*
X131290285Y-124109857D01*
X131404571Y-124109857D01*
X132261714Y-124852714D02*
X132147428Y-124909857D01*
X131918857Y-124909857D01*
X131804571Y-124852714D01*
X131747428Y-124738428D01*
X131747428Y-124281285D01*
X131804571Y-124167000D01*
X131918857Y-124109857D01*
X132147428Y-124109857D01*
X132261714Y-124167000D01*
X132318857Y-124281285D01*
X132318857Y-124395571D01*
X131747428Y-124509857D01*
X132718857Y-124109857D02*
X133004571Y-124909857D01*
X133290285Y-124109857D02*
X133004571Y-124909857D01*
X132890285Y-125195571D01*
X132833142Y-125252714D01*
X132718857Y-125309857D01*
X134661714Y-124909857D02*
X134661714Y-123709857D01*
X135118857Y-124109857D02*
X135404571Y-124909857D01*
X135690285Y-124109857D01*
X136661714Y-124909857D02*
X136661714Y-124281285D01*
X136604571Y-124167000D01*
X136490285Y-124109857D01*
X136261714Y-124109857D01*
X136147428Y-124167000D01*
X136661714Y-124852714D02*
X136547428Y-124909857D01*
X136261714Y-124909857D01*
X136147428Y-124852714D01*
X136090285Y-124738428D01*
X136090285Y-124624142D01*
X136147428Y-124509857D01*
X136261714Y-124452714D01*
X136547428Y-124452714D01*
X136661714Y-124395571D01*
X137233142Y-124109857D02*
X137233142Y-124909857D01*
X137233142Y-124224142D02*
X137290285Y-124167000D01*
X137404571Y-124109857D01*
X137576000Y-124109857D01*
X137690285Y-124167000D01*
X137747428Y-124281285D01*
X137747428Y-124909857D01*
X138490285Y-124909857D02*
X138376000Y-124852714D01*
X138318857Y-124795571D01*
X138261714Y-124681285D01*
X138261714Y-124338428D01*
X138318857Y-124224142D01*
X138376000Y-124167000D01*
X138490285Y-124109857D01*
X138661714Y-124109857D01*
X138776000Y-124167000D01*
X138833142Y-124224142D01*
X138890285Y-124338428D01*
X138890285Y-124681285D01*
X138833142Y-124795571D01*
X138776000Y-124852714D01*
X138661714Y-124909857D01*
X138490285Y-124909857D01*
X139290285Y-124109857D02*
X139576000Y-124909857D01*
X139861714Y-124109857D01*
X140376000Y-124852714D02*
X140376000Y-124909857D01*
X140318857Y-125024142D01*
X140261714Y-125081285D01*
X141747428Y-123824142D02*
X141804571Y-123767000D01*
X141918857Y-123709857D01*
X142204571Y-123709857D01*
X142318857Y-123767000D01*
X142376000Y-123824142D01*
X142433142Y-123938428D01*
X142433142Y-124052714D01*
X142376000Y-124224142D01*
X141690285Y-124909857D01*
X142433142Y-124909857D01*
X143176000Y-123709857D02*
X143290285Y-123709857D01*
X143404571Y-123767000D01*
X143461714Y-123824142D01*
X143518857Y-123938428D01*
X143576000Y-124167000D01*
X143576000Y-124452714D01*
X143518857Y-124681285D01*
X143461714Y-124795571D01*
X143404571Y-124852714D01*
X143290285Y-124909857D01*
X143176000Y-124909857D01*
X143061714Y-124852714D01*
X143004571Y-124795571D01*
X142947428Y-124681285D01*
X142890285Y-124452714D01*
X142890285Y-124167000D01*
X142947428Y-123938428D01*
X143004571Y-123824142D01*
X143061714Y-123767000D01*
X143176000Y-123709857D01*
X144033142Y-123824142D02*
X144090285Y-123767000D01*
X144204571Y-123709857D01*
X144490285Y-123709857D01*
X144604571Y-123767000D01*
X144661714Y-123824142D01*
X144718857Y-123938428D01*
X144718857Y-124052714D01*
X144661714Y-124224142D01*
X143976000Y-124909857D01*
X144718857Y-124909857D01*
X145176000Y-123824142D02*
X145233142Y-123767000D01*
X145347428Y-123709857D01*
X145633142Y-123709857D01*
X145747428Y-123767000D01*
X145804571Y-123824142D01*
X145861714Y-123938428D01*
X145861714Y-124052714D01*
X145804571Y-124224142D01*
X145118857Y-124909857D01*
X145861714Y-124909857D01*
D12*
X138938000Y-90678000D02*
X138938000Y-88900000D01*
X138938000Y-93472000D02*
X137922000Y-90678000D01*
X138938000Y-95504000D02*
X138938000Y-93472000D01*
D10*
X138557047Y-100401428D02*
X139318952Y-100401428D01*
X138938000Y-100782380D02*
X138938000Y-100020476D01*
X138303047Y-106497428D02*
X139064952Y-106497428D01*
X138684000Y-106878380D02*
X138684000Y-106116476D01*
X138303047Y-113101428D02*
X139064952Y-113101428D01*
X138684000Y-113482380D02*
X138684000Y-112720476D01*
D11*
X150320457Y-95497257D02*
X150320457Y-95268685D01*
X150377600Y-95154400D01*
X150491885Y-95040114D01*
X150720457Y-94982971D01*
X151120457Y-94982971D01*
X151349028Y-95040114D01*
X151463314Y-95154400D01*
X151520457Y-95268685D01*
X151520457Y-95497257D01*
X151463314Y-95611542D01*
X151349028Y-95725828D01*
X151120457Y-95782971D01*
X150720457Y-95782971D01*
X150491885Y-95725828D01*
X150377600Y-95611542D01*
X150320457Y-95497257D01*
X151520457Y-94468685D02*
X150320457Y-94468685D01*
X151520457Y-93782971D01*
X150320457Y-93782971D01*
X151063314Y-93211542D02*
X151063314Y-92297257D01*
X150320457Y-91497257D02*
X150320457Y-91268685D01*
X150377600Y-91154400D01*
X150491885Y-91040114D01*
X150720457Y-90982971D01*
X151120457Y-90982971D01*
X151349028Y-91040114D01*
X151463314Y-91154400D01*
X151520457Y-91268685D01*
X151520457Y-91497257D01*
X151463314Y-91611542D01*
X151349028Y-91725828D01*
X151120457Y-91782971D01*
X150720457Y-91782971D01*
X150491885Y-91725828D01*
X150377600Y-91611542D01*
X150320457Y-91497257D01*
X150891885Y-90068685D02*
X150891885Y-90468685D01*
X151520457Y-90468685D02*
X150320457Y-90468685D01*
X150320457Y-89897257D01*
X150891885Y-89040114D02*
X150891885Y-89440114D01*
X151520457Y-89440114D02*
X150320457Y-89440114D01*
X150320457Y-88868685D01*
X149691657Y-102745828D02*
X148491657Y-102745828D01*
X148491657Y-102288685D01*
X148548800Y-102174400D01*
X148605942Y-102117257D01*
X148720228Y-102060114D01*
X148891657Y-102060114D01*
X149005942Y-102117257D01*
X149063085Y-102174400D01*
X149120228Y-102288685D01*
X149120228Y-102745828D01*
X148491657Y-101317257D02*
X148491657Y-101088685D01*
X148548800Y-100974400D01*
X148663085Y-100860114D01*
X148891657Y-100802971D01*
X149291657Y-100802971D01*
X149520228Y-100860114D01*
X149634514Y-100974400D01*
X149691657Y-101088685D01*
X149691657Y-101317257D01*
X149634514Y-101431542D01*
X149520228Y-101545828D01*
X149291657Y-101602971D01*
X148891657Y-101602971D01*
X148663085Y-101545828D01*
X148548800Y-101431542D01*
X148491657Y-101317257D01*
X148491657Y-100402971D02*
X149691657Y-100117257D01*
X148834514Y-99888685D01*
X149691657Y-99660114D01*
X148491657Y-99374400D01*
X149063085Y-98917257D02*
X149063085Y-98517257D01*
X149691657Y-98345828D02*
X149691657Y-98917257D01*
X148491657Y-98917257D01*
X148491657Y-98345828D01*
X149691657Y-97145828D02*
X149120228Y-97545828D01*
X149691657Y-97831542D02*
X148491657Y-97831542D01*
X148491657Y-97374400D01*
X148548800Y-97260114D01*
X148605942Y-97202971D01*
X148720228Y-97145828D01*
X148891657Y-97145828D01*
X149005942Y-97202971D01*
X149063085Y-97260114D01*
X149120228Y-97374400D01*
X149120228Y-97831542D01*
X149691657Y-109400628D02*
X148491657Y-109400628D01*
X148491657Y-108943485D01*
X148548800Y-108829200D01*
X148605942Y-108772057D01*
X148720228Y-108714914D01*
X148891657Y-108714914D01*
X149005942Y-108772057D01*
X149063085Y-108829200D01*
X149120228Y-108943485D01*
X149120228Y-109400628D01*
X148491657Y-107972057D02*
X148491657Y-107743485D01*
X148548800Y-107629200D01*
X148663085Y-107514914D01*
X148891657Y-107457771D01*
X149291657Y-107457771D01*
X149520228Y-107514914D01*
X149634514Y-107629200D01*
X149691657Y-107743485D01*
X149691657Y-107972057D01*
X149634514Y-108086342D01*
X149520228Y-108200628D01*
X149291657Y-108257771D01*
X148891657Y-108257771D01*
X148663085Y-108200628D01*
X148548800Y-108086342D01*
X148491657Y-107972057D01*
X148491657Y-107057771D02*
X149691657Y-106772057D01*
X148834514Y-106543485D01*
X149691657Y-106314914D01*
X148491657Y-106029200D01*
X149063085Y-105572057D02*
X149063085Y-105172057D01*
X149691657Y-105000628D02*
X149691657Y-105572057D01*
X148491657Y-105572057D01*
X148491657Y-105000628D01*
X149691657Y-103800628D02*
X149120228Y-104200628D01*
X149691657Y-104486342D02*
X148491657Y-104486342D01*
X148491657Y-104029200D01*
X148548800Y-103914914D01*
X148605942Y-103857771D01*
X148720228Y-103800628D01*
X148891657Y-103800628D01*
X149005942Y-103857771D01*
X149063085Y-103914914D01*
X149120228Y-104029200D01*
X149120228Y-104486342D01*
X149399600Y-117414228D02*
X149399600Y-116842800D01*
X149742457Y-117528514D02*
X148542457Y-117128514D01*
X149742457Y-116728514D01*
X148599600Y-115699942D02*
X148542457Y-115814228D01*
X148542457Y-115985657D01*
X148599600Y-116157085D01*
X148713885Y-116271371D01*
X148828171Y-116328514D01*
X149056742Y-116385657D01*
X149228171Y-116385657D01*
X149456742Y-116328514D01*
X149571028Y-116271371D01*
X149685314Y-116157085D01*
X149742457Y-115985657D01*
X149742457Y-115871371D01*
X149685314Y-115699942D01*
X149628171Y-115642800D01*
X149228171Y-115642800D01*
X149228171Y-115871371D01*
X149628171Y-114442800D02*
X149685314Y-114499942D01*
X149742457Y-114671371D01*
X149742457Y-114785657D01*
X149685314Y-114957085D01*
X149571028Y-115071371D01*
X149456742Y-115128514D01*
X149228171Y-115185657D01*
X149056742Y-115185657D01*
X148828171Y-115128514D01*
X148713885Y-115071371D01*
X148599600Y-114957085D01*
X148542457Y-114785657D01*
X148542457Y-114671371D01*
X148599600Y-114499942D01*
X148656742Y-114442800D01*
X149742457Y-112442800D02*
X149742457Y-113014228D01*
X148542457Y-113014228D01*
X149113885Y-112042800D02*
X149113885Y-111642800D01*
X149742457Y-111471371D02*
X149742457Y-112042800D01*
X148542457Y-112042800D01*
X148542457Y-111471371D01*
X149742457Y-110957085D02*
X148542457Y-110957085D01*
X148542457Y-110671371D01*
X148599600Y-110499942D01*
X148713885Y-110385657D01*
X148828171Y-110328514D01*
X149056742Y-110271371D01*
X149228171Y-110271371D01*
X149456742Y-110328514D01*
X149571028Y-110385657D01*
X149685314Y-110499942D01*
X149742457Y-110671371D01*
X149742457Y-110957085D01*
X91927942Y-96555314D02*
X90727942Y-96955314D01*
X91927942Y-97355314D01*
X90727942Y-97926742D02*
X90785085Y-97812457D01*
X90842228Y-97755314D01*
X90956514Y-97698171D01*
X91299371Y-97698171D01*
X91413657Y-97755314D01*
X91470800Y-97812457D01*
X91527942Y-97926742D01*
X91527942Y-98098171D01*
X91470800Y-98212457D01*
X91413657Y-98269600D01*
X91299371Y-98326742D01*
X90956514Y-98326742D01*
X90842228Y-98269600D01*
X90785085Y-98212457D01*
X90727942Y-98098171D01*
X90727942Y-97926742D01*
X90727942Y-99012457D02*
X90785085Y-98898171D01*
X90899371Y-98841028D01*
X91927942Y-98841028D01*
X91527942Y-99983885D02*
X90727942Y-99983885D01*
X91527942Y-99469600D02*
X90899371Y-99469600D01*
X90785085Y-99526742D01*
X90727942Y-99641028D01*
X90727942Y-99812457D01*
X90785085Y-99926742D01*
X90842228Y-99983885D01*
X90727942Y-100555314D02*
X91527942Y-100555314D01*
X91413657Y-100555314D02*
X91470800Y-100612457D01*
X91527942Y-100726742D01*
X91527942Y-100898171D01*
X91470800Y-101012457D01*
X91356514Y-101069600D01*
X90727942Y-101069600D01*
X91356514Y-101069600D02*
X91470800Y-101126742D01*
X91527942Y-101241028D01*
X91527942Y-101412457D01*
X91470800Y-101526742D01*
X91356514Y-101583885D01*
X90727942Y-101583885D01*
X90785085Y-102612457D02*
X90727942Y-102498171D01*
X90727942Y-102269600D01*
X90785085Y-102155314D01*
X90899371Y-102098171D01*
X91356514Y-102098171D01*
X91470800Y-102155314D01*
X91527942Y-102269600D01*
X91527942Y-102498171D01*
X91470800Y-102612457D01*
X91356514Y-102669600D01*
X91242228Y-102669600D01*
X91127942Y-102098171D01*
X88627942Y-98898171D02*
X89199371Y-98498171D01*
X88627942Y-98212457D02*
X89827942Y-98212457D01*
X89827942Y-98669600D01*
X89770800Y-98783885D01*
X89713657Y-98841028D01*
X89599371Y-98898171D01*
X89427942Y-98898171D01*
X89313657Y-98841028D01*
X89256514Y-98783885D01*
X89199371Y-98669600D01*
X89199371Y-98212457D01*
X89256514Y-99412457D02*
X89256514Y-99812457D01*
X88627942Y-99983885D02*
X88627942Y-99412457D01*
X89827942Y-99412457D01*
X89827942Y-99983885D01*
X89770800Y-101126742D02*
X89827942Y-101012457D01*
X89827942Y-100841028D01*
X89770800Y-100669600D01*
X89656514Y-100555314D01*
X89542228Y-100498171D01*
X89313657Y-100441028D01*
X89142228Y-100441028D01*
X88913657Y-100498171D01*
X88799371Y-100555314D01*
X88685085Y-100669600D01*
X88627942Y-100841028D01*
X88627942Y-100955314D01*
X88685085Y-101126742D01*
X88742228Y-101183885D01*
X89142228Y-101183885D01*
X89142228Y-100955314D01*
X91782000Y-115808400D02*
X91782000Y-116379828D01*
X91439142Y-115694114D02*
X92639142Y-116094114D01*
X91439142Y-116494114D01*
X92239142Y-117408400D02*
X91439142Y-117408400D01*
X92239142Y-116894114D02*
X91610571Y-116894114D01*
X91496285Y-116951257D01*
X91439142Y-117065542D01*
X91439142Y-117236971D01*
X91496285Y-117351257D01*
X91553428Y-117408400D01*
X91439142Y-118494114D02*
X92639142Y-118494114D01*
X91496285Y-118494114D02*
X91439142Y-118379828D01*
X91439142Y-118151257D01*
X91496285Y-118036971D01*
X91553428Y-117979828D01*
X91667714Y-117922685D01*
X92010571Y-117922685D01*
X92124857Y-117979828D01*
X92182000Y-118036971D01*
X92239142Y-118151257D01*
X92239142Y-118379828D01*
X92182000Y-118494114D01*
X91439142Y-119065542D02*
X92239142Y-119065542D01*
X92639142Y-119065542D02*
X92582000Y-119008400D01*
X92524857Y-119065542D01*
X92582000Y-119122685D01*
X92639142Y-119065542D01*
X92524857Y-119065542D01*
X91439142Y-119808400D02*
X91496285Y-119694114D01*
X91553428Y-119636971D01*
X91667714Y-119579828D01*
X92010571Y-119579828D01*
X92124857Y-119636971D01*
X92182000Y-119694114D01*
X92239142Y-119808400D01*
X92239142Y-119979828D01*
X92182000Y-120094114D01*
X92124857Y-120151257D01*
X92010571Y-120208400D01*
X91667714Y-120208400D01*
X91553428Y-120151257D01*
X91496285Y-120094114D01*
X91439142Y-119979828D01*
X91439142Y-119808400D01*
X89339142Y-116036971D02*
X90539142Y-116036971D01*
X90139142Y-116608400D02*
X89339142Y-116608400D01*
X90024857Y-116608400D02*
X90082000Y-116665542D01*
X90139142Y-116779828D01*
X90139142Y-116951257D01*
X90082000Y-117065542D01*
X89967714Y-117122685D01*
X89339142Y-117122685D01*
X90139142Y-117694114D02*
X88939142Y-117694114D01*
X90082000Y-117694114D02*
X90139142Y-117808400D01*
X90139142Y-118036971D01*
X90082000Y-118151257D01*
X90024857Y-118208400D01*
X89910571Y-118265542D01*
X89567714Y-118265542D01*
X89453428Y-118208400D01*
X89396285Y-118151257D01*
X89339142Y-118036971D01*
X89339142Y-117808400D01*
X89396285Y-117694114D01*
X90139142Y-119294114D02*
X89339142Y-119294114D01*
X90139142Y-118779828D02*
X89510571Y-118779828D01*
X89396285Y-118836971D01*
X89339142Y-118951257D01*
X89339142Y-119122685D01*
X89396285Y-119236971D01*
X89453428Y-119294114D01*
X90139142Y-119694114D02*
X90139142Y-120151257D01*
X90539142Y-119865542D02*
X89510571Y-119865542D01*
X89396285Y-119922685D01*
X89339142Y-120036971D01*
X89339142Y-120151257D01*
X91731200Y-108239200D02*
X91731200Y-108810628D01*
X91388342Y-108124914D02*
X92588342Y-108524914D01*
X91388342Y-108924914D01*
X92188342Y-109839200D02*
X91388342Y-109839200D01*
X92188342Y-109324914D02*
X91559771Y-109324914D01*
X91445485Y-109382057D01*
X91388342Y-109496342D01*
X91388342Y-109667771D01*
X91445485Y-109782057D01*
X91502628Y-109839200D01*
X91388342Y-110924914D02*
X92588342Y-110924914D01*
X91445485Y-110924914D02*
X91388342Y-110810628D01*
X91388342Y-110582057D01*
X91445485Y-110467771D01*
X91502628Y-110410628D01*
X91616914Y-110353485D01*
X91959771Y-110353485D01*
X92074057Y-110410628D01*
X92131200Y-110467771D01*
X92188342Y-110582057D01*
X92188342Y-110810628D01*
X92131200Y-110924914D01*
X91388342Y-111496342D02*
X92188342Y-111496342D01*
X92588342Y-111496342D02*
X92531200Y-111439200D01*
X92474057Y-111496342D01*
X92531200Y-111553485D01*
X92588342Y-111496342D01*
X92474057Y-111496342D01*
X91388342Y-112239200D02*
X91445485Y-112124914D01*
X91502628Y-112067771D01*
X91616914Y-112010628D01*
X91959771Y-112010628D01*
X92074057Y-112067771D01*
X92131200Y-112124914D01*
X92188342Y-112239200D01*
X92188342Y-112410628D01*
X92131200Y-112524914D01*
X92074057Y-112582057D01*
X91959771Y-112639200D01*
X91616914Y-112639200D01*
X91502628Y-112582057D01*
X91445485Y-112524914D01*
X91388342Y-112410628D01*
X91388342Y-112239200D01*
X90488342Y-108010628D02*
X90488342Y-108239200D01*
X90431200Y-108353485D01*
X90316914Y-108467771D01*
X90088342Y-108524914D01*
X89688342Y-108524914D01*
X89459771Y-108467771D01*
X89345485Y-108353485D01*
X89288342Y-108239200D01*
X89288342Y-108010628D01*
X89345485Y-107896342D01*
X89459771Y-107782057D01*
X89688342Y-107724914D01*
X90088342Y-107724914D01*
X90316914Y-107782057D01*
X90431200Y-107896342D01*
X90488342Y-108010628D01*
X90088342Y-109553485D02*
X89288342Y-109553485D01*
X90088342Y-109039200D02*
X89459771Y-109039200D01*
X89345485Y-109096342D01*
X89288342Y-109210628D01*
X89288342Y-109382057D01*
X89345485Y-109496342D01*
X89402628Y-109553485D01*
X90088342Y-109953485D02*
X90088342Y-110410628D01*
X90488342Y-110124914D02*
X89459771Y-110124914D01*
X89345485Y-110182057D01*
X89288342Y-110296342D01*
X89288342Y-110410628D01*
X90088342Y-110810628D02*
X88888342Y-110810628D01*
X90031200Y-110810628D02*
X90088342Y-110924914D01*
X90088342Y-111153485D01*
X90031200Y-111267771D01*
X89974057Y-111324914D01*
X89859771Y-111382057D01*
X89516914Y-111382057D01*
X89402628Y-111324914D01*
X89345485Y-111267771D01*
X89288342Y-111153485D01*
X89288342Y-110924914D01*
X89345485Y-110810628D01*
X90088342Y-112410628D02*
X89288342Y-112410628D01*
X90088342Y-111896342D02*
X89459771Y-111896342D01*
X89345485Y-111953485D01*
X89288342Y-112067771D01*
X89288342Y-112239200D01*
X89345485Y-112353485D01*
X89402628Y-112410628D01*
X90088342Y-112810628D02*
X90088342Y-113267771D01*
X90488342Y-112982057D02*
X89459771Y-112982057D01*
X89345485Y-113039200D01*
X89288342Y-113153485D01*
X89288342Y-113267771D01*
D12*
%TO.C,J5*%
X147793200Y-109836400D02*
X147793200Y-108586400D01*
X146543200Y-109836400D02*
X147793200Y-109836400D01*
X140643200Y-104336400D02*
X143693200Y-104336400D01*
X140643200Y-107286400D02*
X140643200Y-104336400D01*
X139893200Y-107286400D02*
X140643200Y-107286400D01*
X146743200Y-104336400D02*
X143693200Y-104336400D01*
X146743200Y-107286400D02*
X146743200Y-104336400D01*
X147493200Y-107286400D02*
X146743200Y-107286400D01*
X139893200Y-109536400D02*
X141693200Y-109536400D01*
X139893200Y-108786400D02*
X139893200Y-109536400D01*
X141693200Y-108786400D02*
X139893200Y-108786400D01*
X141693200Y-109536400D02*
X141693200Y-108786400D01*
X145693200Y-109536400D02*
X147493200Y-109536400D01*
X145693200Y-108786400D02*
X145693200Y-109536400D01*
X147493200Y-108786400D02*
X145693200Y-108786400D01*
X147493200Y-109536400D02*
X147493200Y-108786400D01*
X143193200Y-109536400D02*
X144193200Y-109536400D01*
X143193200Y-108786400D02*
X143193200Y-109536400D01*
X144193200Y-108786400D02*
X143193200Y-108786400D01*
X144193200Y-109536400D02*
X144193200Y-108786400D01*
X139883200Y-109546400D02*
X147503200Y-109546400D01*
X139883200Y-103576400D02*
X139883200Y-109546400D01*
X147503200Y-103576400D02*
X139883200Y-103576400D01*
X147503200Y-109546400D02*
X147503200Y-103576400D01*
%TO.C,J4*%
X147782400Y-103080000D02*
X147782400Y-101830000D01*
X146532400Y-103080000D02*
X147782400Y-103080000D01*
X140632400Y-97580000D02*
X143682400Y-97580000D01*
X140632400Y-100530000D02*
X140632400Y-97580000D01*
X139882400Y-100530000D02*
X140632400Y-100530000D01*
X146732400Y-97580000D02*
X143682400Y-97580000D01*
X146732400Y-100530000D02*
X146732400Y-97580000D01*
X147482400Y-100530000D02*
X146732400Y-100530000D01*
X139882400Y-102780000D02*
X141682400Y-102780000D01*
X139882400Y-102030000D02*
X139882400Y-102780000D01*
X141682400Y-102030000D02*
X139882400Y-102030000D01*
X141682400Y-102780000D02*
X141682400Y-102030000D01*
X145682400Y-102780000D02*
X147482400Y-102780000D01*
X145682400Y-102030000D02*
X145682400Y-102780000D01*
X147482400Y-102030000D02*
X145682400Y-102030000D01*
X147482400Y-102780000D02*
X147482400Y-102030000D01*
X143182400Y-102780000D02*
X144182400Y-102780000D01*
X143182400Y-102030000D02*
X143182400Y-102780000D01*
X144182400Y-102030000D02*
X143182400Y-102030000D01*
X144182400Y-102780000D02*
X144182400Y-102030000D01*
X139872400Y-102790000D02*
X147492400Y-102790000D01*
X139872400Y-96820000D02*
X139872400Y-102790000D01*
X147492400Y-96820000D02*
X139872400Y-96820000D01*
X147492400Y-102790000D02*
X147492400Y-96820000D01*
%TO.C,J6*%
X147782400Y-116592800D02*
X147782400Y-115342800D01*
X146532400Y-116592800D02*
X147782400Y-116592800D01*
X140632400Y-111092800D02*
X143682400Y-111092800D01*
X140632400Y-114042800D02*
X140632400Y-111092800D01*
X139882400Y-114042800D02*
X140632400Y-114042800D01*
X146732400Y-111092800D02*
X143682400Y-111092800D01*
X146732400Y-114042800D02*
X146732400Y-111092800D01*
X147482400Y-114042800D02*
X146732400Y-114042800D01*
X139882400Y-116292800D02*
X141682400Y-116292800D01*
X139882400Y-115542800D02*
X139882400Y-116292800D01*
X141682400Y-115542800D02*
X139882400Y-115542800D01*
X141682400Y-116292800D02*
X141682400Y-115542800D01*
X145682400Y-116292800D02*
X147482400Y-116292800D01*
X145682400Y-115542800D02*
X145682400Y-116292800D01*
X147482400Y-115542800D02*
X145682400Y-115542800D01*
X147482400Y-116292800D02*
X147482400Y-115542800D01*
X143182400Y-116292800D02*
X144182400Y-116292800D01*
X143182400Y-115542800D02*
X143182400Y-116292800D01*
X144182400Y-115542800D02*
X143182400Y-115542800D01*
X144182400Y-116292800D02*
X144182400Y-115542800D01*
X139872400Y-116302800D02*
X147492400Y-116302800D01*
X139872400Y-110332800D02*
X139872400Y-116302800D01*
X147492400Y-110332800D02*
X139872400Y-110332800D01*
X147492400Y-116302800D02*
X147492400Y-110332800D01*
%TO.C,J3*%
X139591600Y-96322000D02*
X140841600Y-96322000D01*
X139591600Y-95072000D02*
X139591600Y-96322000D01*
X145091600Y-89172000D02*
X145091600Y-92222000D01*
X142141600Y-89172000D02*
X145091600Y-89172000D01*
X142141600Y-88422000D02*
X142141600Y-89172000D01*
X145091600Y-95272000D02*
X145091600Y-92222000D01*
X142141600Y-95272000D02*
X145091600Y-95272000D01*
X142141600Y-96022000D02*
X142141600Y-95272000D01*
X139891600Y-88422000D02*
X139891600Y-90222000D01*
X140641600Y-88422000D02*
X139891600Y-88422000D01*
X140641600Y-90222000D02*
X140641600Y-88422000D01*
X139891600Y-90222000D02*
X140641600Y-90222000D01*
X139891600Y-94222000D02*
X139891600Y-96022000D01*
X140641600Y-94222000D02*
X139891600Y-94222000D01*
X140641600Y-96022000D02*
X140641600Y-94222000D01*
X139891600Y-96022000D02*
X140641600Y-96022000D01*
X139891600Y-91722000D02*
X139891600Y-92722000D01*
X140641600Y-91722000D02*
X139891600Y-91722000D01*
X140641600Y-92722000D02*
X140641600Y-91722000D01*
X139891600Y-92722000D02*
X140641600Y-92722000D01*
X139881600Y-88412000D02*
X139881600Y-96032000D01*
X145851600Y-88412000D02*
X139881600Y-88412000D01*
X145851600Y-96032000D02*
X145851600Y-88412000D01*
X139881600Y-96032000D02*
X145851600Y-96032000D01*
%TO.C,J2*%
X94989200Y-122890400D02*
X96239200Y-122890400D01*
X94989200Y-121640400D02*
X94989200Y-122890400D01*
X100489200Y-115740400D02*
X100489200Y-118790400D01*
X97539200Y-115740400D02*
X100489200Y-115740400D01*
X97539200Y-114990400D02*
X97539200Y-115740400D01*
X100489200Y-121840400D02*
X100489200Y-118790400D01*
X97539200Y-121840400D02*
X100489200Y-121840400D01*
X97539200Y-122590400D02*
X97539200Y-121840400D01*
X95289200Y-114990400D02*
X95289200Y-116790400D01*
X96039200Y-114990400D02*
X95289200Y-114990400D01*
X96039200Y-116790400D02*
X96039200Y-114990400D01*
X95289200Y-116790400D02*
X96039200Y-116790400D01*
X95289200Y-120790400D02*
X95289200Y-122590400D01*
X96039200Y-120790400D02*
X95289200Y-120790400D01*
X96039200Y-122590400D02*
X96039200Y-120790400D01*
X95289200Y-122590400D02*
X96039200Y-122590400D01*
X95289200Y-118290400D02*
X95289200Y-119290400D01*
X96039200Y-118290400D02*
X95289200Y-118290400D01*
X96039200Y-119290400D02*
X96039200Y-118290400D01*
X95289200Y-119290400D02*
X96039200Y-119290400D01*
X95279200Y-114980400D02*
X95279200Y-122600400D01*
X101249200Y-114980400D02*
X95279200Y-114980400D01*
X101249200Y-122600400D02*
X101249200Y-114980400D01*
X95279200Y-122600400D02*
X101249200Y-122600400D01*
%TO.C,J1*%
X94989200Y-114457600D02*
X96239200Y-114457600D01*
X94989200Y-113207600D02*
X94989200Y-114457600D01*
X100489200Y-107307600D02*
X100489200Y-110357600D01*
X97539200Y-107307600D02*
X100489200Y-107307600D01*
X97539200Y-106557600D02*
X97539200Y-107307600D01*
X100489200Y-113407600D02*
X100489200Y-110357600D01*
X97539200Y-113407600D02*
X100489200Y-113407600D01*
X97539200Y-114157600D02*
X97539200Y-113407600D01*
X95289200Y-106557600D02*
X95289200Y-108357600D01*
X96039200Y-106557600D02*
X95289200Y-106557600D01*
X96039200Y-108357600D02*
X96039200Y-106557600D01*
X95289200Y-108357600D02*
X96039200Y-108357600D01*
X95289200Y-112357600D02*
X95289200Y-114157600D01*
X96039200Y-112357600D02*
X95289200Y-112357600D01*
X96039200Y-114157600D02*
X96039200Y-112357600D01*
X95289200Y-114157600D02*
X96039200Y-114157600D01*
X95289200Y-109857600D02*
X95289200Y-110857600D01*
X96039200Y-109857600D02*
X95289200Y-109857600D01*
X96039200Y-110857600D02*
X96039200Y-109857600D01*
X95289200Y-110857600D02*
X96039200Y-110857600D01*
X95279200Y-106547600D02*
X95279200Y-114167600D01*
X101249200Y-106547600D02*
X95279200Y-106547600D01*
X101249200Y-114167600D02*
X101249200Y-106547600D01*
X95279200Y-114167600D02*
X101249200Y-114167600D01*
%TO.C,Q1*%
X107370000Y-107420000D02*
X107370000Y-111020000D01*
X108097205Y-106895816D02*
G75*
G03*
X107370000Y-107420000I1122795J-2324184D01*
G01*
X110318807Y-106863600D02*
G75*
G02*
X111820000Y-109220000I-1098807J-2356400D01*
G01*
X110318807Y-111576400D02*
G75*
G03*
X111820000Y-109220000I-1098807J2356400D01*
G01*
X108097205Y-111544184D02*
G75*
G02*
X107370000Y-111020000I1122795J2324184D01*
G01*
%TO.C,RV2*%
X126354000Y-121100000D02*
X126354000Y-112380000D01*
X126354000Y-112380000D02*
X113234000Y-112380000D01*
X113234000Y-112380000D02*
X113234000Y-121100000D01*
X113234000Y-121100000D02*
X126354000Y-121100000D01*
X125744000Y-119490000D02*
X125744000Y-113990000D01*
X125744000Y-113990000D02*
X123444000Y-113990000D01*
X123444000Y-113990000D02*
X123444000Y-112990000D01*
X123444000Y-112990000D02*
X120844000Y-112990000D01*
X120844000Y-112990000D02*
X120844000Y-113990000D01*
X120844000Y-113990000D02*
X116444000Y-113990000D01*
X116444000Y-113990000D02*
X116444000Y-112990000D01*
X116444000Y-112990000D02*
X113844000Y-112990000D01*
X113844000Y-112990000D02*
X113844000Y-119490000D01*
X113844000Y-119490000D02*
X125744000Y-119490000D01*
X126654000Y-118990000D02*
X126654000Y-121400000D01*
X126654000Y-121400000D02*
X124244000Y-121400000D01*
%TO.C,C3*%
X134969000Y-113177000D02*
G75*
G03*
X134969000Y-113177000I-3270000J0D01*
G01*
%TO.C,C2*%
X124956000Y-105664000D02*
G75*
G03*
X124956000Y-105664000I-3270000J0D01*
G01*
%TO.C,C1*%
X110966000Y-102128000D02*
G75*
G03*
X110966000Y-102128000I-3270000J0D01*
G01*
%TO.C,D1*%
X124894000Y-112214000D02*
X124894000Y-109274000D01*
X124894000Y-109274000D02*
X119454000Y-109274000D01*
X119454000Y-109274000D02*
X119454000Y-112214000D01*
X119454000Y-112214000D02*
X124894000Y-112214000D01*
X126114000Y-110744000D02*
X124894000Y-110744000D01*
X118234000Y-110744000D02*
X119454000Y-110744000D01*
X123994000Y-112214000D02*
X123994000Y-109274000D01*
X123874000Y-112214000D02*
X123874000Y-109274000D01*
X124114000Y-112214000D02*
X124114000Y-109274000D01*
%TO.C,R1*%
X104425000Y-95235000D02*
X102585000Y-95235000D01*
X102585000Y-95235000D02*
X102585000Y-99075000D01*
X102585000Y-99075000D02*
X104425000Y-99075000D01*
X104425000Y-99075000D02*
X104425000Y-95235000D01*
X103505000Y-94285000D02*
X103505000Y-95235000D01*
X103505000Y-100025000D02*
X103505000Y-99075000D01*
%TO.C,R2*%
X113950000Y-104506000D02*
X112110000Y-104506000D01*
X112110000Y-104506000D02*
X112110000Y-108346000D01*
X112110000Y-108346000D02*
X113950000Y-108346000D01*
X113950000Y-108346000D02*
X113950000Y-104506000D01*
X113030000Y-103556000D02*
X113030000Y-104506000D01*
X113030000Y-109296000D02*
X113030000Y-108346000D01*
%TO.C,R3*%
X113920000Y-94270000D02*
X112080000Y-94270000D01*
X112080000Y-94270000D02*
X112080000Y-98110000D01*
X112080000Y-98110000D02*
X113920000Y-98110000D01*
X113920000Y-98110000D02*
X113920000Y-94270000D01*
X113000000Y-93320000D02*
X113000000Y-94270000D01*
X113000000Y-99060000D02*
X113000000Y-98110000D01*
%TO.C,R4*%
X110998000Y-120726000D02*
X110998000Y-119776000D01*
X110998000Y-114986000D02*
X110998000Y-115936000D01*
X111918000Y-119776000D02*
X111918000Y-115936000D01*
X110078000Y-119776000D02*
X111918000Y-119776000D01*
X110078000Y-115936000D02*
X110078000Y-119776000D01*
X111918000Y-115936000D02*
X110078000Y-115936000D01*
%TO.C,R5*%
X126543000Y-108077000D02*
X127493000Y-108077000D01*
X132283000Y-108077000D02*
X131333000Y-108077000D01*
X127493000Y-108997000D02*
X131333000Y-108997000D01*
X127493000Y-107157000D02*
X127493000Y-108997000D01*
X131333000Y-107157000D02*
X127493000Y-107157000D01*
X131333000Y-108997000D02*
X131333000Y-107157000D01*
%TO.C,R6*%
X134000000Y-99180000D02*
X134000000Y-98230000D01*
X134000000Y-93440000D02*
X134000000Y-94390000D01*
X134920000Y-98230000D02*
X134920000Y-94390000D01*
X133080000Y-98230000D02*
X134920000Y-98230000D01*
X133080000Y-94390000D02*
X133080000Y-98230000D01*
X134920000Y-94390000D02*
X133080000Y-94390000D01*
%TO.C,R7*%
X137322800Y-116428000D02*
X137322800Y-118268000D01*
X137322800Y-118268000D02*
X141162800Y-118268000D01*
X141162800Y-118268000D02*
X141162800Y-116428000D01*
X141162800Y-116428000D02*
X137322800Y-116428000D01*
X136372800Y-117348000D02*
X137322800Y-117348000D01*
X142112800Y-117348000D02*
X141162800Y-117348000D01*
%TO.C,R8*%
X137000000Y-99180000D02*
X137000000Y-98230000D01*
X137000000Y-93440000D02*
X137000000Y-94390000D01*
X137920000Y-98230000D02*
X137920000Y-94390000D01*
X136080000Y-98230000D02*
X137920000Y-98230000D01*
X136080000Y-94390000D02*
X136080000Y-98230000D01*
X137920000Y-94390000D02*
X136080000Y-94390000D01*
%TO.C,RV1*%
X92806000Y-106155000D02*
X92806000Y-103745000D01*
X95216000Y-106155000D02*
X92806000Y-106155000D01*
X94716000Y-93345000D02*
X94716000Y-105245000D01*
X101216000Y-93345000D02*
X94716000Y-93345000D01*
X101216000Y-95945000D02*
X101216000Y-93345000D01*
X100216000Y-95945000D02*
X101216000Y-95945000D01*
X100216000Y-100345000D02*
X100216000Y-95945000D01*
X101216000Y-100345000D02*
X100216000Y-100345000D01*
X101216000Y-102945000D02*
X101216000Y-100345000D01*
X100216000Y-102945000D02*
X101216000Y-102945000D01*
X100216000Y-105245000D02*
X100216000Y-102945000D01*
X94716000Y-105245000D02*
X100216000Y-105245000D01*
X93106000Y-92735000D02*
X93106000Y-105855000D01*
X101826000Y-92735000D02*
X93106000Y-92735000D01*
X101826000Y-105855000D02*
X101826000Y-92735000D01*
X93106000Y-105855000D02*
X101826000Y-105855000D01*
%TO.C,U1*%
X118990000Y-95090000D02*
X118990000Y-105110000D01*
X129010000Y-95090000D02*
X118990000Y-95090000D01*
X129010000Y-102530000D02*
X129010000Y-95090000D01*
X126430000Y-105110000D02*
X129010000Y-102530000D01*
X118990000Y-105110000D02*
X126430000Y-105110000D01*
%TO.C,Q2*%
X134460000Y-107121000D02*
X134460000Y-110721000D01*
X135187205Y-111245184D02*
G75*
G02*
X134460000Y-110721000I1122795J2324184D01*
G01*
X137408807Y-111277400D02*
G75*
G03*
X138910000Y-108921000I-1098807J2356400D01*
G01*
X137408807Y-106564600D02*
G75*
G02*
X138910000Y-108921000I-1098807J-2356400D01*
G01*
X135187205Y-106596816D02*
G75*
G03*
X134460000Y-107121000I1122795J-2324184D01*
G01*
%TO.C,J5*%
D10*
X143227466Y-104557580D02*
X143227466Y-105271866D01*
X143179847Y-105414723D01*
X143084609Y-105509961D01*
X142941752Y-105557580D01*
X142846514Y-105557580D01*
X144179847Y-104557580D02*
X143703657Y-104557580D01*
X143656038Y-105033771D01*
X143703657Y-104986152D01*
X143798895Y-104938533D01*
X144036990Y-104938533D01*
X144132228Y-104986152D01*
X144179847Y-105033771D01*
X144227466Y-105129009D01*
X144227466Y-105367104D01*
X144179847Y-105462342D01*
X144132228Y-105509961D01*
X144036990Y-105557580D01*
X143798895Y-105557580D01*
X143703657Y-105509961D01*
X143656038Y-105462342D01*
%TO.C,J4*%
X143278266Y-97902780D02*
X143278266Y-98617066D01*
X143230647Y-98759923D01*
X143135409Y-98855161D01*
X142992552Y-98902780D01*
X142897314Y-98902780D01*
X144183028Y-98236114D02*
X144183028Y-98902780D01*
X143944933Y-97855161D02*
X143706838Y-98569447D01*
X144325885Y-98569447D01*
%TO.C,J6*%
X145869066Y-117105180D02*
X145869066Y-117819466D01*
X145821447Y-117962323D01*
X145726209Y-118057561D01*
X145583352Y-118105180D01*
X145488114Y-118105180D01*
X146773828Y-117105180D02*
X146583352Y-117105180D01*
X146488114Y-117152800D01*
X146440495Y-117200419D01*
X146345257Y-117343276D01*
X146297638Y-117533752D01*
X146297638Y-117914704D01*
X146345257Y-118009942D01*
X146392876Y-118057561D01*
X146488114Y-118105180D01*
X146678590Y-118105180D01*
X146773828Y-118057561D01*
X146821447Y-118009942D01*
X146869066Y-117914704D01*
X146869066Y-117676609D01*
X146821447Y-117581371D01*
X146773828Y-117533752D01*
X146678590Y-117486133D01*
X146488114Y-117486133D01*
X146392876Y-117533752D01*
X146345257Y-117581371D01*
X146297638Y-117676609D01*
%TO.C,J3*%
X143876780Y-92484533D02*
X144591066Y-92484533D01*
X144733923Y-92532152D01*
X144829161Y-92627390D01*
X144876780Y-92770247D01*
X144876780Y-92865485D01*
X143876780Y-92103580D02*
X143876780Y-91484533D01*
X144257733Y-91817866D01*
X144257733Y-91675009D01*
X144305352Y-91579771D01*
X144352971Y-91532152D01*
X144448209Y-91484533D01*
X144686304Y-91484533D01*
X144781542Y-91532152D01*
X144829161Y-91579771D01*
X144876780Y-91675009D01*
X144876780Y-91960723D01*
X144829161Y-92055961D01*
X144781542Y-92103580D01*
%TO.C,J2*%
X93641580Y-119123733D02*
X94355866Y-119123733D01*
X94498723Y-119171352D01*
X94593961Y-119266590D01*
X94641580Y-119409447D01*
X94641580Y-119504685D01*
X93736819Y-118695161D02*
X93689200Y-118647542D01*
X93641580Y-118552304D01*
X93641580Y-118314209D01*
X93689200Y-118218971D01*
X93736819Y-118171352D01*
X93832057Y-118123733D01*
X93927295Y-118123733D01*
X94070152Y-118171352D01*
X94641580Y-118742780D01*
X94641580Y-118123733D01*
%TO.C,J1*%
X93641580Y-110690933D02*
X94355866Y-110690933D01*
X94498723Y-110738552D01*
X94593961Y-110833790D01*
X94641580Y-110976647D01*
X94641580Y-111071885D01*
X94641580Y-109690933D02*
X94641580Y-110262361D01*
X94641580Y-109976647D02*
X93641580Y-109976647D01*
X93784438Y-110071885D01*
X93879676Y-110167123D01*
X93927295Y-110262361D01*
%TO.C,Q1*%
X111393219Y-109315238D02*
X111345600Y-109410476D01*
X111250361Y-109505714D01*
X111107504Y-109648571D01*
X111059885Y-109743809D01*
X111059885Y-109839047D01*
X111297980Y-109791428D02*
X111250361Y-109886666D01*
X111155123Y-109981904D01*
X110964647Y-110029523D01*
X110631314Y-110029523D01*
X110440838Y-109981904D01*
X110345600Y-109886666D01*
X110297980Y-109791428D01*
X110297980Y-109600952D01*
X110345600Y-109505714D01*
X110440838Y-109410476D01*
X110631314Y-109362857D01*
X110964647Y-109362857D01*
X111155123Y-109410476D01*
X111250361Y-109505714D01*
X111297980Y-109600952D01*
X111297980Y-109791428D01*
X111297980Y-108410476D02*
X111297980Y-108981904D01*
X111297980Y-108696190D02*
X110297980Y-108696190D01*
X110440838Y-108791428D01*
X110536076Y-108886666D01*
X110583695Y-108981904D01*
%TO.C,RV2*%
X127848761Y-117792380D02*
X127515428Y-117316190D01*
X127277333Y-117792380D02*
X127277333Y-116792380D01*
X127658285Y-116792380D01*
X127753523Y-116840000D01*
X127801142Y-116887619D01*
X127848761Y-116982857D01*
X127848761Y-117125714D01*
X127801142Y-117220952D01*
X127753523Y-117268571D01*
X127658285Y-117316190D01*
X127277333Y-117316190D01*
X128134476Y-116792380D02*
X128467809Y-117792380D01*
X128801142Y-116792380D01*
X129086857Y-116887619D02*
X129134476Y-116840000D01*
X129229714Y-116792380D01*
X129467809Y-116792380D01*
X129563047Y-116840000D01*
X129610666Y-116887619D01*
X129658285Y-116982857D01*
X129658285Y-117078095D01*
X129610666Y-117220952D01*
X129039238Y-117792380D01*
X129658285Y-117792380D01*
%TO.C,C3*%
X130506742Y-113298266D02*
X130554361Y-113345885D01*
X130601980Y-113488742D01*
X130601980Y-113583980D01*
X130554361Y-113726838D01*
X130459123Y-113822076D01*
X130363885Y-113869695D01*
X130173409Y-113917314D01*
X130030552Y-113917314D01*
X129840076Y-113869695D01*
X129744838Y-113822076D01*
X129649600Y-113726838D01*
X129601980Y-113583980D01*
X129601980Y-113488742D01*
X129649600Y-113345885D01*
X129697219Y-113298266D01*
X129601980Y-112964933D02*
X129601980Y-112345885D01*
X129982933Y-112679219D01*
X129982933Y-112536361D01*
X130030552Y-112441123D01*
X130078171Y-112393504D01*
X130173409Y-112345885D01*
X130411504Y-112345885D01*
X130506742Y-112393504D01*
X130554361Y-112441123D01*
X130601980Y-112536361D01*
X130601980Y-112822076D01*
X130554361Y-112917314D01*
X130506742Y-112964933D01*
%TO.C,C2*%
X121448533Y-107951542D02*
X121400914Y-107999161D01*
X121258057Y-108046780D01*
X121162819Y-108046780D01*
X121019961Y-107999161D01*
X120924723Y-107903923D01*
X120877104Y-107808685D01*
X120829485Y-107618209D01*
X120829485Y-107475352D01*
X120877104Y-107284876D01*
X120924723Y-107189638D01*
X121019961Y-107094400D01*
X121162819Y-107046780D01*
X121258057Y-107046780D01*
X121400914Y-107094400D01*
X121448533Y-107142019D01*
X121829485Y-107142019D02*
X121877104Y-107094400D01*
X121972342Y-107046780D01*
X122210438Y-107046780D01*
X122305676Y-107094400D01*
X122353295Y-107142019D01*
X122400914Y-107237257D01*
X122400914Y-107332495D01*
X122353295Y-107475352D01*
X121781866Y-108046780D01*
X122400914Y-108046780D01*
%TO.C,C1*%
X106071942Y-102274666D02*
X106119561Y-102322285D01*
X106167180Y-102465142D01*
X106167180Y-102560380D01*
X106119561Y-102703238D01*
X106024323Y-102798476D01*
X105929085Y-102846095D01*
X105738609Y-102893714D01*
X105595752Y-102893714D01*
X105405276Y-102846095D01*
X105310038Y-102798476D01*
X105214800Y-102703238D01*
X105167180Y-102560380D01*
X105167180Y-102465142D01*
X105214800Y-102322285D01*
X105262419Y-102274666D01*
X106167180Y-101322285D02*
X106167180Y-101893714D01*
X106167180Y-101608000D02*
X105167180Y-101608000D01*
X105310038Y-101703238D01*
X105405276Y-101798476D01*
X105452895Y-101893714D01*
%TO.C,D1*%
X121015904Y-111196380D02*
X121015904Y-110196380D01*
X121254000Y-110196380D01*
X121396857Y-110244000D01*
X121492095Y-110339238D01*
X121539714Y-110434476D01*
X121587333Y-110624952D01*
X121587333Y-110767809D01*
X121539714Y-110958285D01*
X121492095Y-111053523D01*
X121396857Y-111148761D01*
X121254000Y-111196380D01*
X121015904Y-111196380D01*
X122539714Y-111196380D02*
X121968285Y-111196380D01*
X122254000Y-111196380D02*
X122254000Y-110196380D01*
X122158761Y-110339238D01*
X122063523Y-110434476D01*
X121968285Y-110482095D01*
X126992095Y-113096380D02*
X126992095Y-112096380D01*
X127563523Y-113096380D02*
X127134952Y-112524952D01*
X127563523Y-112096380D02*
X126992095Y-112667809D01*
%TO.C,R1*%
X103493333Y-97287380D02*
X103160000Y-96811190D01*
X102921904Y-97287380D02*
X102921904Y-96287380D01*
X103302857Y-96287380D01*
X103398095Y-96335000D01*
X103445714Y-96382619D01*
X103493333Y-96477857D01*
X103493333Y-96620714D01*
X103445714Y-96715952D01*
X103398095Y-96763571D01*
X103302857Y-96811190D01*
X102921904Y-96811190D01*
X104445714Y-97287380D02*
X103874285Y-97287380D01*
X104160000Y-97287380D02*
X104160000Y-96287380D01*
X104064761Y-96430238D01*
X103969523Y-96525476D01*
X103874285Y-96573095D01*
%TO.C,R2*%
X112914133Y-106370380D02*
X112580800Y-105894190D01*
X112342704Y-106370380D02*
X112342704Y-105370380D01*
X112723657Y-105370380D01*
X112818895Y-105418000D01*
X112866514Y-105465619D01*
X112914133Y-105560857D01*
X112914133Y-105703714D01*
X112866514Y-105798952D01*
X112818895Y-105846571D01*
X112723657Y-105894190D01*
X112342704Y-105894190D01*
X113295085Y-105465619D02*
X113342704Y-105418000D01*
X113437942Y-105370380D01*
X113676038Y-105370380D01*
X113771276Y-105418000D01*
X113818895Y-105465619D01*
X113866514Y-105560857D01*
X113866514Y-105656095D01*
X113818895Y-105798952D01*
X113247466Y-106370380D01*
X113866514Y-106370380D01*
%TO.C,R3*%
X112863333Y-96337380D02*
X112530000Y-95861190D01*
X112291904Y-96337380D02*
X112291904Y-95337380D01*
X112672857Y-95337380D01*
X112768095Y-95385000D01*
X112815714Y-95432619D01*
X112863333Y-95527857D01*
X112863333Y-95670714D01*
X112815714Y-95765952D01*
X112768095Y-95813571D01*
X112672857Y-95861190D01*
X112291904Y-95861190D01*
X113196666Y-95337380D02*
X113815714Y-95337380D01*
X113482380Y-95718333D01*
X113625238Y-95718333D01*
X113720476Y-95765952D01*
X113768095Y-95813571D01*
X113815714Y-95908809D01*
X113815714Y-96146904D01*
X113768095Y-96242142D01*
X113720476Y-96289761D01*
X113625238Y-96337380D01*
X113339523Y-96337380D01*
X113244285Y-96289761D01*
X113196666Y-96242142D01*
%TO.C,R4*%
X110741333Y-118093380D02*
X110408000Y-117617190D01*
X110169904Y-118093380D02*
X110169904Y-117093380D01*
X110550857Y-117093380D01*
X110646095Y-117141000D01*
X110693714Y-117188619D01*
X110741333Y-117283857D01*
X110741333Y-117426714D01*
X110693714Y-117521952D01*
X110646095Y-117569571D01*
X110550857Y-117617190D01*
X110169904Y-117617190D01*
X111598476Y-117426714D02*
X111598476Y-118093380D01*
X111360380Y-117045761D02*
X111122285Y-117760047D01*
X111741333Y-117760047D01*
%TO.C,R5*%
X129151333Y-108344380D02*
X128818000Y-107868190D01*
X128579904Y-108344380D02*
X128579904Y-107344380D01*
X128960857Y-107344380D01*
X129056095Y-107392000D01*
X129103714Y-107439619D01*
X129151333Y-107534857D01*
X129151333Y-107677714D01*
X129103714Y-107772952D01*
X129056095Y-107820571D01*
X128960857Y-107868190D01*
X128579904Y-107868190D01*
X130056095Y-107344380D02*
X129579904Y-107344380D01*
X129532285Y-107820571D01*
X129579904Y-107772952D01*
X129675142Y-107725333D01*
X129913238Y-107725333D01*
X130008476Y-107772952D01*
X130056095Y-107820571D01*
X130103714Y-107915809D01*
X130103714Y-108153904D01*
X130056095Y-108249142D01*
X130008476Y-108296761D01*
X129913238Y-108344380D01*
X129675142Y-108344380D01*
X129579904Y-108296761D01*
X129532285Y-108249142D01*
%TO.C,R6*%
X134437380Y-96051666D02*
X133961190Y-96385000D01*
X134437380Y-96623095D02*
X133437380Y-96623095D01*
X133437380Y-96242142D01*
X133485000Y-96146904D01*
X133532619Y-96099285D01*
X133627857Y-96051666D01*
X133770714Y-96051666D01*
X133865952Y-96099285D01*
X133913571Y-96146904D01*
X133961190Y-96242142D01*
X133961190Y-96623095D01*
X133437380Y-95194523D02*
X133437380Y-95385000D01*
X133485000Y-95480238D01*
X133532619Y-95527857D01*
X133675476Y-95623095D01*
X133865952Y-95670714D01*
X134246904Y-95670714D01*
X134342142Y-95623095D01*
X134389761Y-95575476D01*
X134437380Y-95480238D01*
X134437380Y-95289761D01*
X134389761Y-95194523D01*
X134342142Y-95146904D01*
X134246904Y-95099285D01*
X134008809Y-95099285D01*
X133913571Y-95146904D01*
X133865952Y-95194523D01*
X133818333Y-95289761D01*
X133818333Y-95480238D01*
X133865952Y-95575476D01*
X133913571Y-95623095D01*
X134008809Y-95670714D01*
%TO.C,R7*%
X139076133Y-117855380D02*
X138742800Y-117379190D01*
X138504704Y-117855380D02*
X138504704Y-116855380D01*
X138885657Y-116855380D01*
X138980895Y-116903000D01*
X139028514Y-116950619D01*
X139076133Y-117045857D01*
X139076133Y-117188714D01*
X139028514Y-117283952D01*
X138980895Y-117331571D01*
X138885657Y-117379190D01*
X138504704Y-117379190D01*
X139409466Y-116855380D02*
X140076133Y-116855380D01*
X139647561Y-117855380D01*
%TO.C,R8*%
X137612380Y-96051666D02*
X137136190Y-96385000D01*
X137612380Y-96623095D02*
X136612380Y-96623095D01*
X136612380Y-96242142D01*
X136660000Y-96146904D01*
X136707619Y-96099285D01*
X136802857Y-96051666D01*
X136945714Y-96051666D01*
X137040952Y-96099285D01*
X137088571Y-96146904D01*
X137136190Y-96242142D01*
X137136190Y-96623095D01*
X137040952Y-95480238D02*
X136993333Y-95575476D01*
X136945714Y-95623095D01*
X136850476Y-95670714D01*
X136802857Y-95670714D01*
X136707619Y-95623095D01*
X136660000Y-95575476D01*
X136612380Y-95480238D01*
X136612380Y-95289761D01*
X136660000Y-95194523D01*
X136707619Y-95146904D01*
X136802857Y-95099285D01*
X136850476Y-95099285D01*
X136945714Y-95146904D01*
X136993333Y-95194523D01*
X137040952Y-95289761D01*
X137040952Y-95480238D01*
X137088571Y-95575476D01*
X137136190Y-95623095D01*
X137231428Y-95670714D01*
X137421904Y-95670714D01*
X137517142Y-95623095D01*
X137564761Y-95575476D01*
X137612380Y-95480238D01*
X137612380Y-95289761D01*
X137564761Y-95194523D01*
X137517142Y-95146904D01*
X137421904Y-95099285D01*
X137231428Y-95099285D01*
X137136190Y-95146904D01*
X137088571Y-95194523D01*
X137040952Y-95289761D01*
%TO.C,RV1*%
X97245561Y-92095580D02*
X96912228Y-91619390D01*
X96674133Y-92095580D02*
X96674133Y-91095580D01*
X97055085Y-91095580D01*
X97150323Y-91143200D01*
X97197942Y-91190819D01*
X97245561Y-91286057D01*
X97245561Y-91428914D01*
X97197942Y-91524152D01*
X97150323Y-91571771D01*
X97055085Y-91619390D01*
X96674133Y-91619390D01*
X97531276Y-91095580D02*
X97864609Y-92095580D01*
X98197942Y-91095580D01*
X99055085Y-92095580D02*
X98483657Y-92095580D01*
X98769371Y-92095580D02*
X98769371Y-91095580D01*
X98674133Y-91238438D01*
X98578895Y-91333676D01*
X98483657Y-91381295D01*
%TO.C,U1*%
X123238095Y-95337380D02*
X123238095Y-96146904D01*
X123285714Y-96242142D01*
X123333333Y-96289761D01*
X123428571Y-96337380D01*
X123619047Y-96337380D01*
X123714285Y-96289761D01*
X123761904Y-96242142D01*
X123809523Y-96146904D01*
X123809523Y-95337380D01*
X124809523Y-96337380D02*
X124238095Y-96337380D01*
X124523809Y-96337380D02*
X124523809Y-95337380D01*
X124428571Y-95480238D01*
X124333333Y-95575476D01*
X124238095Y-95623095D01*
%TO.C,Q2*%
X138469619Y-109010438D02*
X138422000Y-109105676D01*
X138326761Y-109200914D01*
X138183904Y-109343771D01*
X138136285Y-109439009D01*
X138136285Y-109534247D01*
X138374380Y-109486628D02*
X138326761Y-109581866D01*
X138231523Y-109677104D01*
X138041047Y-109724723D01*
X137707714Y-109724723D01*
X137517238Y-109677104D01*
X137422000Y-109581866D01*
X137374380Y-109486628D01*
X137374380Y-109296152D01*
X137422000Y-109200914D01*
X137517238Y-109105676D01*
X137707714Y-109058057D01*
X138041047Y-109058057D01*
X138231523Y-109105676D01*
X138326761Y-109200914D01*
X138374380Y-109296152D01*
X138374380Y-109486628D01*
X137469619Y-108677104D02*
X137422000Y-108629485D01*
X137374380Y-108534247D01*
X137374380Y-108296152D01*
X137422000Y-108200914D01*
X137469619Y-108153295D01*
X137564857Y-108105676D01*
X137660095Y-108105676D01*
X137802952Y-108153295D01*
X138374380Y-108724723D01*
X138374380Y-108105676D01*
%TD*%
M02*
