%TF.GenerationSoftware,KiCad,Pcbnew,5.1.12*%
%TF.CreationDate,2021-12-29T22:49:18+01:00*%
%TF.ProjectId,AGC,4147432e-6b69-4636-9164-5f7063625858,rev?*%
%TF.SameCoordinates,Original*%
%TF.FileFunction,Copper,L2,Bot*%
%TF.FilePolarity,Positive*%
%FSLAX46Y46*%
G04 Gerber Fmt 4.6, Leading zero omitted, Abs format (unit mm)*
G04 Created by KiCad (PCBNEW 5.1.12) date 2021-12-29 22:49:18*
%MOMM*%
%LPD*%
G01*
G04 APERTURE LIST*
%TA.AperFunction,ComponentPad*%
%ADD10O,1.700000X2.000000*%
%TD*%
%TA.AperFunction,ComponentPad*%
%ADD11O,2.000000X1.700000*%
%TD*%
%TA.AperFunction,ComponentPad*%
%ADD12C,1.500000*%
%TD*%
%TA.AperFunction,ComponentPad*%
%ADD13R,1.500000X1.500000*%
%TD*%
%TA.AperFunction,ComponentPad*%
%ADD14O,2.000000X2.600000*%
%TD*%
%TA.AperFunction,ComponentPad*%
%ADD15C,1.600000*%
%TD*%
%TA.AperFunction,ComponentPad*%
%ADD16R,1.800000X1.800000*%
%TD*%
%TA.AperFunction,ComponentPad*%
%ADD17O,1.800000X1.800000*%
%TD*%
%TA.AperFunction,ComponentPad*%
%ADD18C,1.400000*%
%TD*%
%TA.AperFunction,ComponentPad*%
%ADD19O,1.400000X1.400000*%
%TD*%
%TA.AperFunction,ComponentPad*%
%ADD20O,2.600000X2.000000*%
%TD*%
%TA.AperFunction,ComponentPad*%
%ADD21C,1.150000*%
%TD*%
%TA.AperFunction,Conductor*%
%ADD22C,2.000000*%
%TD*%
%TA.AperFunction,Conductor*%
%ADD23C,3.000000*%
%TD*%
%TA.AperFunction,Conductor*%
%ADD24C,2.500000*%
%TD*%
%TA.AperFunction,Conductor*%
%ADD25C,2.700000*%
%TD*%
%TA.AperFunction,Conductor*%
%ADD26C,0.254000*%
%TD*%
%TA.AperFunction,Conductor*%
%ADD27C,0.100000*%
%TD*%
G04 APERTURE END LIST*
D10*
%TO.P,J5,2*%
%TO.N,Net-(J3-Pad1)*%
X142443200Y-107086400D03*
%TO.P,J5,1*%
%TO.N,GND*%
%TA.AperFunction,ComponentPad*%
G36*
G01*
X145793200Y-106336400D02*
X145793200Y-107836400D01*
G75*
G02*
X145543200Y-108086400I-250000J0D01*
G01*
X144343200Y-108086400D01*
G75*
G02*
X144093200Y-107836400I0J250000D01*
G01*
X144093200Y-106336400D01*
G75*
G02*
X144343200Y-106086400I250000J0D01*
G01*
X145543200Y-106086400D01*
G75*
G02*
X145793200Y-106336400I0J-250000D01*
G01*
G37*
%TD.AperFunction*%
%TD*%
%TO.P,J4,2*%
%TO.N,Net-(J3-Pad1)*%
X142432400Y-100330000D03*
%TO.P,J4,1*%
%TO.N,GND*%
%TA.AperFunction,ComponentPad*%
G36*
G01*
X145782400Y-99580000D02*
X145782400Y-101080000D01*
G75*
G02*
X145532400Y-101330000I-250000J0D01*
G01*
X144332400Y-101330000D01*
G75*
G02*
X144082400Y-101080000I0J250000D01*
G01*
X144082400Y-99580000D01*
G75*
G02*
X144332400Y-99330000I250000J0D01*
G01*
X145532400Y-99330000D01*
G75*
G02*
X145782400Y-99580000I0J-250000D01*
G01*
G37*
%TD.AperFunction*%
%TD*%
%TO.P,J6,2*%
%TO.N,Net-(J6-Pad2)*%
X142432400Y-113842800D03*
%TO.P,J6,1*%
%TO.N,GND*%
%TA.AperFunction,ComponentPad*%
G36*
G01*
X145782400Y-113092800D02*
X145782400Y-114592800D01*
G75*
G02*
X145532400Y-114842800I-250000J0D01*
G01*
X144332400Y-114842800D01*
G75*
G02*
X144082400Y-114592800I0J250000D01*
G01*
X144082400Y-113092800D01*
G75*
G02*
X144332400Y-112842800I250000J0D01*
G01*
X145532400Y-112842800D01*
G75*
G02*
X145782400Y-113092800I0J-250000D01*
G01*
G37*
%TD.AperFunction*%
%TD*%
D11*
%TO.P,J3,2*%
%TO.N,Net-(J3-Pad2)*%
X142341600Y-90972000D03*
%TO.P,J3,1*%
%TO.N,Net-(J3-Pad1)*%
%TA.AperFunction,ComponentPad*%
G36*
G01*
X143091600Y-94322000D02*
X141591600Y-94322000D01*
G75*
G02*
X141341600Y-94072000I0J250000D01*
G01*
X141341600Y-92872000D01*
G75*
G02*
X141591600Y-92622000I250000J0D01*
G01*
X143091600Y-92622000D01*
G75*
G02*
X143341600Y-92872000I0J-250000D01*
G01*
X143341600Y-94072000D01*
G75*
G02*
X143091600Y-94322000I-250000J0D01*
G01*
G37*
%TD.AperFunction*%
%TD*%
%TO.P,J2,2*%
%TO.N,GND*%
X97739200Y-117540400D03*
%TO.P,J2,1*%
%TO.N,Net-(C1-Pad2)*%
%TA.AperFunction,ComponentPad*%
G36*
G01*
X98489200Y-120890400D02*
X96989200Y-120890400D01*
G75*
G02*
X96739200Y-120640400I0J250000D01*
G01*
X96739200Y-119440400D01*
G75*
G02*
X96989200Y-119190400I250000J0D01*
G01*
X98489200Y-119190400D01*
G75*
G02*
X98739200Y-119440400I0J-250000D01*
G01*
X98739200Y-120640400D01*
G75*
G02*
X98489200Y-120890400I-250000J0D01*
G01*
G37*
%TD.AperFunction*%
%TD*%
%TO.P,J1,2*%
%TO.N,Net-(J1-Pad2)*%
X97739200Y-109107600D03*
%TO.P,J1,1*%
%TO.N,GND*%
%TA.AperFunction,ComponentPad*%
G36*
G01*
X98489200Y-112457600D02*
X96989200Y-112457600D01*
G75*
G02*
X96739200Y-112207600I0J250000D01*
G01*
X96739200Y-111007600D01*
G75*
G02*
X96989200Y-110757600I250000J0D01*
G01*
X98489200Y-110757600D01*
G75*
G02*
X98739200Y-111007600I0J-250000D01*
G01*
X98739200Y-112207600D01*
G75*
G02*
X98489200Y-112457600I-250000J0D01*
G01*
G37*
%TD.AperFunction*%
%TD*%
D12*
%TO.P,Q1,2*%
%TO.N,Net-(C1-Pad1)*%
X109220000Y-109220000D03*
%TO.P,Q1,3*%
%TO.N,Net-(Q1-Pad3)*%
X109220000Y-111760000D03*
D13*
%TO.P,Q1,1*%
%TO.N,Net-(C2-Pad2)*%
X109220000Y-106680000D03*
%TD*%
%TO.P,RV2,1*%
%TO.N,Net-(C2-Pad1)*%
%TA.AperFunction,ComponentPad*%
G36*
G01*
X124444000Y-115790000D02*
X124444000Y-117890000D01*
G75*
G02*
X124194000Y-118140000I-250000J0D01*
G01*
X122694000Y-118140000D01*
G75*
G02*
X122444000Y-117890000I0J250000D01*
G01*
X122444000Y-115790000D01*
G75*
G02*
X122694000Y-115540000I250000J0D01*
G01*
X124194000Y-115540000D01*
G75*
G02*
X124444000Y-115790000I0J-250000D01*
G01*
G37*
%TD.AperFunction*%
D14*
%TO.P,RV2,2*%
%TO.N,Net-(D1-Pad2)*%
X119944000Y-116840000D03*
%TO.P,RV2,3*%
%TO.N,GND*%
X116444000Y-116840000D03*
%TD*%
D15*
%TO.P,C3,2*%
%TO.N,Net-(C3-Pad2)*%
X131699000Y-111927000D03*
%TO.P,C3,1*%
%TO.N,Net-(C3-Pad1)*%
X131699000Y-114427000D03*
%TD*%
%TO.P,C2,2*%
%TO.N,Net-(C2-Pad2)*%
X120436000Y-105664000D03*
%TO.P,C2,1*%
%TO.N,Net-(C2-Pad1)*%
X122936000Y-105664000D03*
%TD*%
%TO.P,C1,2*%
%TO.N,Net-(C1-Pad2)*%
X107696000Y-100878000D03*
%TO.P,C1,1*%
%TO.N,Net-(C1-Pad1)*%
X107696000Y-103378000D03*
%TD*%
D16*
%TO.P,D1,1*%
%TO.N,Net-(C3-Pad2)*%
X127254000Y-110744000D03*
D17*
%TO.P,D1,2*%
%TO.N,Net-(D1-Pad2)*%
X117094000Y-110744000D03*
%TD*%
D18*
%TO.P,R1,1*%
%TO.N,Net-(R1-Pad1)*%
X103505000Y-93345000D03*
D19*
%TO.P,R1,2*%
%TO.N,Net-(C1-Pad2)*%
X103505000Y-100965000D03*
%TD*%
D18*
%TO.P,R2,1*%
%TO.N,Net-(C2-Pad2)*%
X113030000Y-102616000D03*
D19*
%TO.P,R2,2*%
%TO.N,Net-(C1-Pad1)*%
X113030000Y-110236000D03*
%TD*%
D18*
%TO.P,R3,1*%
%TO.N,Net-(J3-Pad2)*%
X113000000Y-92380000D03*
D19*
%TO.P,R3,2*%
%TO.N,Net-(C2-Pad2)*%
X113000000Y-100000000D03*
%TD*%
%TO.P,R4,2*%
%TO.N,GND*%
X110998000Y-121666000D03*
D18*
%TO.P,R4,1*%
%TO.N,Net-(Q1-Pad3)*%
X110998000Y-114046000D03*
%TD*%
D19*
%TO.P,R5,2*%
%TO.N,Net-(C3-Pad2)*%
X125603000Y-108077000D03*
D18*
%TO.P,R5,1*%
%TO.N,Net-(Q2-Pad2)*%
X133223000Y-108077000D03*
%TD*%
D19*
%TO.P,R6,2*%
%TO.N,Net-(R6-Pad2)*%
X134000000Y-100120000D03*
D18*
%TO.P,R6,1*%
%TO.N,Net-(J3-Pad2)*%
X134000000Y-92500000D03*
%TD*%
%TO.P,R7,1*%
%TO.N,Net-(C3-Pad1)*%
X135432800Y-117348000D03*
D19*
%TO.P,R7,2*%
%TO.N,GND*%
X143052800Y-117348000D03*
%TD*%
%TO.P,R8,2*%
%TO.N,Net-(J6-Pad2)*%
X137000000Y-100120000D03*
D18*
%TO.P,R8,1*%
%TO.N,Net-(J3-Pad2)*%
X137000000Y-92500000D03*
%TD*%
D20*
%TO.P,RV1,3*%
%TO.N,Net-(R1-Pad1)*%
X97366000Y-95945000D03*
%TO.P,RV1,2*%
%TO.N,Net-(J1-Pad2)*%
X97366000Y-99445000D03*
%TO.P,RV1,1*%
%TO.N,GND*%
%TA.AperFunction,ComponentPad*%
G36*
G01*
X98416000Y-103945000D02*
X96316000Y-103945000D01*
G75*
G02*
X96066000Y-103695000I0J250000D01*
G01*
X96066000Y-102195000D01*
G75*
G02*
X96316000Y-101945000I250000J0D01*
G01*
X98416000Y-101945000D01*
G75*
G02*
X98666000Y-102195000I0J-250000D01*
G01*
X98666000Y-103695000D01*
G75*
G02*
X98416000Y-103945000I-250000J0D01*
G01*
G37*
%TD.AperFunction*%
%TD*%
%TO.P,U1,1*%
%TO.N,Net-(Q2-Pad1)*%
%TA.AperFunction,ComponentPad*%
G36*
G01*
X132075000Y-101712500D02*
X132075000Y-102287500D01*
G75*
G02*
X131787500Y-102575000I-287500J0D01*
G01*
X131212500Y-102575000D01*
G75*
G02*
X130925000Y-102287500I0J287500D01*
G01*
X130925000Y-101712500D01*
G75*
G02*
X131212500Y-101425000I287500J0D01*
G01*
X131787500Y-101425000D01*
G75*
G02*
X132075000Y-101712500I0J-287500D01*
G01*
G37*
%TD.AperFunction*%
D21*
%TO.P,U1,3*%
%TO.N,GND*%
X116500000Y-102640000D03*
%TO.P,U1,4*%
%TO.N,Net-(R1-Pad1)*%
X116500000Y-97560000D03*
%TO.P,U1,2*%
%TO.N,Net-(R6-Pad2)*%
X131500000Y-98200000D03*
%TD*%
D13*
%TO.P,Q2,1*%
%TO.N,Net-(Q2-Pad1)*%
X136310000Y-106381000D03*
D12*
%TO.P,Q2,3*%
%TO.N,Net-(C3-Pad1)*%
X136310000Y-111461000D03*
%TO.P,Q2,2*%
%TO.N,Net-(Q2-Pad2)*%
X136310000Y-108921000D03*
%TD*%
D22*
%TO.N,Net-(C1-Pad1)*%
X112014000Y-109220000D02*
X113030000Y-110236000D01*
X109220000Y-109220000D02*
X112014000Y-109220000D01*
X109220000Y-109220000D02*
X108331000Y-109220000D01*
X107019990Y-104054010D02*
X107696000Y-103378000D01*
X107019990Y-107908990D02*
X107019990Y-104054010D01*
X108331000Y-109220000D02*
X107019990Y-107908990D01*
%TO.N,Net-(C1-Pad2)*%
X107609000Y-100965000D02*
X107696000Y-100878000D01*
X103505000Y-100965000D02*
X107609000Y-100965000D01*
X104648000Y-102108000D02*
X103505000Y-100965000D01*
X104648000Y-115815610D02*
X104648000Y-102108000D01*
X100448610Y-120015000D02*
X104648000Y-115815610D01*
X97536000Y-120015000D02*
X100448610Y-120015000D01*
%TO.N,Net-(C2-Pad1)*%
X122936000Y-116332000D02*
X123444000Y-116840000D01*
X122936000Y-105664000D02*
X122936000Y-116332000D01*
%TO.N,Net-(C2-Pad2)*%
X119420000Y-106680000D02*
X120436000Y-105664000D01*
X113030000Y-105791000D02*
X112141000Y-106680000D01*
X113030000Y-102616000D02*
X113030000Y-105791000D01*
X112141000Y-106680000D02*
X119420000Y-106680000D01*
X109220000Y-106680000D02*
X112141000Y-106680000D01*
X113000000Y-102586000D02*
X113030000Y-102616000D01*
X113000000Y-100000000D02*
X113000000Y-102586000D01*
%TO.N,Net-(C3-Pad2)*%
X130516000Y-110744000D02*
X131699000Y-111927000D01*
X127254000Y-110744000D02*
X130516000Y-110744000D01*
X131699000Y-111927000D02*
X126659000Y-111927000D01*
X125793500Y-111061500D02*
X125793500Y-108267500D01*
X126659000Y-111927000D02*
X125793500Y-111061500D01*
X125793500Y-108267500D02*
X125603000Y-108077000D01*
X125603000Y-109093000D02*
X127254000Y-110744000D01*
X125603000Y-108077000D02*
X125603000Y-109093000D01*
%TO.N,Net-(C3-Pad1)*%
X134239000Y-114427000D02*
X135509000Y-115697000D01*
X131699000Y-114427000D02*
X134239000Y-114427000D01*
X134620000Y-114427000D02*
X136310000Y-112737000D01*
X131699000Y-114427000D02*
X134620000Y-114427000D01*
X136310000Y-112737000D02*
X136310000Y-114896000D01*
X136310000Y-111461000D02*
X136310000Y-112737000D01*
X136310000Y-114896000D02*
X135509000Y-115697000D01*
X136310000Y-111461000D02*
X136310000Y-114896000D01*
X135432800Y-115773200D02*
X136310000Y-114896000D01*
X135432800Y-117348000D02*
X135432800Y-115773200D01*
%TO.N,Net-(D1-Pad2)*%
X117094000Y-110744000D02*
X119507000Y-113157000D01*
X119507000Y-116403000D02*
X119944000Y-116840000D01*
X119507000Y-113157000D02*
X119507000Y-116403000D01*
D23*
%TO.N,Net-(J3-Pad2)*%
X113120000Y-92500000D02*
X113000000Y-92380000D01*
X134000000Y-92500000D02*
X113120000Y-92500000D01*
D22*
X137923210Y-91576790D02*
X137000000Y-92500000D01*
X137000000Y-92500000D02*
X134000000Y-92500000D01*
X135528000Y-90972000D02*
X134000000Y-92500000D01*
X142341600Y-90972000D02*
X135528000Y-90972000D01*
%TO.N,Net-(J3-Pad1)*%
X142443200Y-100340800D02*
X142432400Y-100330000D01*
X142443200Y-107086400D02*
X142443200Y-100340800D01*
X142341600Y-100239200D02*
X142432400Y-100330000D01*
X142341600Y-93472000D02*
X142341600Y-100239200D01*
D24*
X142341600Y-93472000D02*
X142240000Y-93472000D01*
X142240000Y-93472000D02*
X141274800Y-94437200D01*
X141274800Y-105918000D02*
X142443200Y-107086400D01*
X141274800Y-94437200D02*
X141274800Y-105918000D01*
D22*
%TO.N,Net-(J6-Pad2)*%
X138510010Y-101630010D02*
X137000000Y-100120000D01*
X142547795Y-113947395D02*
X142452185Y-113851785D01*
X139903200Y-110439200D02*
X139903200Y-110896400D01*
X139903200Y-110896400D02*
X141427200Y-112420400D01*
X139903200Y-108856780D02*
X138510010Y-107463590D01*
X139903200Y-110439200D02*
X139903200Y-108856780D01*
X138510010Y-107463590D02*
X138510010Y-101630010D01*
X138510010Y-111586010D02*
X138510010Y-107463590D01*
X142392400Y-113781200D02*
X142392400Y-113944400D01*
X138510010Y-113211610D02*
X138510010Y-111586010D01*
X142240000Y-114249200D02*
X139547600Y-114249200D01*
X141427200Y-112420400D02*
X140106400Y-112420400D01*
X140106400Y-112420400D02*
X138912600Y-113614200D01*
X138912600Y-113614200D02*
X138510010Y-113211610D01*
X139547600Y-114249200D02*
X138912600Y-113614200D01*
D24*
X139141200Y-113842800D02*
X138912600Y-113614200D01*
X139903200Y-108966000D02*
X142341600Y-111404400D01*
X139903200Y-108856780D02*
X139903200Y-108966000D01*
X142341600Y-113752000D02*
X142432400Y-113842800D01*
X142341600Y-111404400D02*
X142341600Y-113752000D01*
D22*
%TO.N,Net-(Q1-Pad3)*%
X109220000Y-112268000D02*
X110998000Y-114046000D01*
X109220000Y-111760000D02*
X109220000Y-112268000D01*
%TO.N,Net-(Q2-Pad1)*%
X131929000Y-102000000D02*
X136310000Y-106381000D01*
X131500000Y-102000000D02*
X131929000Y-102000000D01*
%TO.N,Net-(Q2-Pad2)*%
X133850000Y-108921000D02*
X136310000Y-108921000D01*
X134067000Y-108921000D02*
X133223000Y-108077000D01*
X136310000Y-108921000D02*
X134067000Y-108921000D01*
%TO.N,Net-(R1-Pad1)*%
X107720000Y-97560000D02*
X103505000Y-93345000D01*
X103505000Y-95751000D02*
X103311000Y-95945000D01*
X103505000Y-93345000D02*
X103505000Y-95751000D01*
X103311000Y-95945000D02*
X106105000Y-95945000D01*
X97366000Y-95945000D02*
X103311000Y-95945000D01*
X100905000Y-95945000D02*
X103505000Y-93345000D01*
X97366000Y-95945000D02*
X100905000Y-95945000D01*
D23*
X106105000Y-95945000D02*
X107720000Y-97560000D01*
X97366000Y-95945000D02*
X106105000Y-95945000D01*
D22*
X112342800Y-97560000D02*
X116500000Y-97560000D01*
X107720000Y-97560000D02*
X112342800Y-97560000D01*
%TO.N,Net-(R6-Pad2)*%
X132080000Y-98200000D02*
X134000000Y-100120000D01*
X131500000Y-98200000D02*
X132080000Y-98200000D01*
D23*
%TO.N,GND*%
X111500000Y-121525497D02*
X114474503Y-124500000D01*
X111500000Y-120500000D02*
X111500000Y-121525497D01*
X118500000Y-124000000D02*
X118000000Y-124500000D01*
X122500000Y-124500000D02*
X122500000Y-122500000D01*
X122500000Y-122500000D02*
X121299990Y-123700010D01*
X121299990Y-123700010D02*
X117299990Y-123700010D01*
X116500000Y-124500000D02*
X114474503Y-124500000D01*
X117299990Y-123700010D02*
X116500000Y-124500000D01*
X118000000Y-124500000D02*
X116500000Y-124500000D01*
X114474503Y-124500000D02*
X127000000Y-124500000D01*
X127000000Y-124500000D02*
X128620000Y-122880000D01*
X128620000Y-122880000D02*
X128620000Y-120620000D01*
X126380000Y-120620000D02*
X128620000Y-120620000D01*
X128620000Y-120620000D02*
X123120000Y-120620000D01*
X121299990Y-122440010D02*
X121299990Y-123700010D01*
X123120000Y-120620000D02*
X121299990Y-122440010D01*
X126380000Y-122880000D02*
X125250000Y-121750000D01*
X128620000Y-122880000D02*
X126380000Y-122880000D01*
X125250000Y-121750000D02*
X126380000Y-120620000D01*
X122500000Y-124500000D02*
X125250000Y-121750000D01*
X109799990Y-121299990D02*
X109000000Y-120500000D01*
X109000000Y-120500000D02*
X111500000Y-120500000D01*
X109799990Y-123700010D02*
X109799990Y-121299990D01*
X121299990Y-123700010D02*
X109799990Y-123700010D01*
X108700010Y-123700010D02*
X105500000Y-120500000D01*
X109799990Y-123700010D02*
X108700010Y-123700010D01*
X144500000Y-124500000D02*
X122500000Y-124500000D01*
D22*
X97536000Y-113030000D02*
X97536000Y-114935000D01*
X97536000Y-114935000D02*
X97536000Y-116205000D01*
X97536000Y-116205000D02*
X97536000Y-117475000D01*
X111364000Y-119735980D02*
X109799990Y-121299990D01*
X122412893Y-120620000D02*
X121325883Y-121707010D01*
X123120000Y-120620000D02*
X122412893Y-120620000D01*
D23*
X107038000Y-120500000D02*
X109000000Y-120500000D01*
X105500000Y-120500000D02*
X107038000Y-120500000D01*
D22*
X113335030Y-121707010D02*
X111364000Y-119735980D01*
X121325883Y-121707010D02*
X117814990Y-121707010D01*
X117814990Y-121707010D02*
X115547727Y-121707010D01*
X116444000Y-120810737D02*
X115547727Y-121707010D01*
X116444000Y-116840000D02*
X116444000Y-120810737D01*
D23*
X98642800Y-124500000D02*
X98693600Y-124500000D01*
X114474503Y-124500000D02*
X98642800Y-124500000D01*
X113335030Y-119948970D02*
X116444000Y-116840000D01*
X113335030Y-121707010D02*
X113335030Y-119948970D01*
X105918000Y-118668800D02*
X105613200Y-118668800D01*
X107746800Y-116840000D02*
X105918000Y-118668800D01*
X102156610Y-122430190D02*
X107746800Y-116840000D01*
X107482630Y-119948970D02*
X113335030Y-119948970D01*
X105153810Y-122277790D02*
X107482630Y-119948970D01*
X115763410Y-121707010D02*
X110896400Y-116840000D01*
X115782990Y-121707010D02*
X115763410Y-121707010D01*
X110896400Y-116840000D02*
X107746800Y-116840000D01*
X116444000Y-116840000D02*
X110896400Y-116840000D01*
D22*
X117814990Y-121707010D02*
X115782990Y-121707010D01*
X115782990Y-121707010D02*
X113335030Y-121707010D01*
D23*
X107787430Y-119948970D02*
X110896400Y-116840000D01*
X107482630Y-119948970D02*
X107787430Y-119948970D01*
X116444000Y-121140000D02*
X116444000Y-116840000D01*
X117054000Y-121750000D02*
X116444000Y-121140000D01*
X125250000Y-121750000D02*
X117054000Y-121750000D01*
X119605610Y-120620000D02*
X116444000Y-117458390D01*
X116444000Y-117458390D02*
X116444000Y-116840000D01*
X123120000Y-120620000D02*
X119605610Y-120620000D01*
X105613200Y-118668800D02*
X101574600Y-122707400D01*
X97536000Y-115250002D02*
X97536000Y-117314990D01*
X97536000Y-115250002D02*
X97536000Y-113190009D01*
D25*
X148200010Y-109406790D02*
X146287048Y-109406790D01*
X148200010Y-109406790D02*
X148200010Y-112200248D01*
X147457010Y-110576752D02*
X146287048Y-109406790D01*
X147912648Y-112200248D02*
X147457010Y-111744610D01*
X147457010Y-111744610D02*
X147457010Y-110576752D01*
X148200010Y-112200248D02*
X147912648Y-112200248D01*
X145186706Y-124802484D02*
X145320680Y-124668510D01*
X111101790Y-124766990D02*
X111137284Y-124802484D01*
X104087010Y-124766990D02*
X111101790Y-124766990D01*
X107748990Y-124766990D02*
X104087010Y-124766990D01*
X144322800Y-119075200D02*
X144322800Y-123670630D01*
X144322800Y-123670630D02*
X145320680Y-124668510D01*
X141828290Y-119273090D02*
X141630400Y-119075200D01*
D23*
X141630400Y-119075200D02*
X144322800Y-119075200D01*
D25*
X145320680Y-124668510D02*
X141828290Y-124668510D01*
X140151890Y-119182110D02*
X140258800Y-119075200D01*
D23*
X140258800Y-119075200D02*
X141630400Y-119075200D01*
D25*
X141828290Y-124668510D02*
X140151890Y-124668510D01*
X140151890Y-124668510D02*
X136697490Y-124668510D01*
X136697490Y-124668510D02*
X133863310Y-124668510D01*
X131018510Y-121823710D02*
X130073400Y-120878600D01*
X133863310Y-124668510D02*
X130073400Y-120878600D01*
X140151890Y-124668510D02*
X140151890Y-121823710D01*
X140151890Y-121823710D02*
X140151890Y-119182110D01*
X141828290Y-122981490D02*
X138627890Y-122981490D01*
X140151890Y-121823710D02*
X137470110Y-121823710D01*
X141828290Y-124668510D02*
X141828290Y-122981490D01*
X138627890Y-122981490D02*
X137470110Y-121823710D01*
X141828290Y-122981490D02*
X141828290Y-119273090D01*
X131079820Y-122880000D02*
X132136110Y-121823710D01*
X128620000Y-122880000D02*
X131079820Y-122880000D01*
X132136110Y-121823710D02*
X131018510Y-121823710D01*
X137470110Y-121823710D02*
X132136110Y-121823710D01*
X144814585Y-121628120D02*
X144814585Y-124430363D01*
X148200010Y-118242695D02*
X144814585Y-121628120D01*
X144814585Y-124430363D02*
X145186706Y-124802484D01*
X94985991Y-118146131D02*
X94958261Y-118173861D01*
X95817132Y-117314990D02*
X97536000Y-117314990D01*
X94985991Y-118146131D02*
X95817132Y-117314990D01*
X95746007Y-113190009D02*
X97536000Y-113190009D01*
X94985991Y-112429993D02*
X95746007Y-113190009D01*
X94985991Y-111699191D02*
X94985991Y-112429993D01*
X94985991Y-108976009D02*
X94985991Y-111699191D01*
X94985991Y-111699191D02*
X94985991Y-118146131D01*
X95530600Y-102945000D02*
X94985991Y-103489609D01*
X97635921Y-123243501D02*
X99159410Y-124766990D01*
X94958261Y-123243501D02*
X97635921Y-123243501D01*
X104087010Y-124766990D02*
X99159410Y-124766990D01*
X95649137Y-122618139D02*
X94958261Y-122618139D01*
X95738398Y-122707400D02*
X95649137Y-122618139D01*
X101574600Y-122707400D02*
X95738398Y-122707400D01*
X94958261Y-122618139D02*
X94958261Y-123243501D01*
X94958261Y-118173861D02*
X94958261Y-122618139D01*
D22*
X99872800Y-112685200D02*
X98805210Y-111617610D01*
X98805210Y-111617610D02*
X97627592Y-111617610D01*
X99872800Y-116484400D02*
X99872800Y-112685200D01*
X98816800Y-117540400D02*
X99872800Y-116484400D01*
X97739200Y-117540400D02*
X98816800Y-117540400D01*
X97366000Y-102945000D02*
X95530600Y-102945000D01*
X96821391Y-103489609D02*
X97366000Y-102945000D01*
X94985991Y-103489609D02*
X96821391Y-103489609D01*
D25*
X94985991Y-106994809D02*
X94985991Y-108976009D01*
D22*
X144932400Y-100330000D02*
X147370800Y-100330000D01*
X147370800Y-100330000D02*
X148793200Y-100330000D01*
X146287048Y-108430248D02*
X144943200Y-107086400D01*
X146287048Y-109406790D02*
X146287048Y-108430248D01*
X144943200Y-100340800D02*
X144932400Y-100330000D01*
X147370800Y-100584000D02*
X144943200Y-103011600D01*
X147370800Y-100330000D02*
X147370800Y-100584000D01*
X144943200Y-103011600D02*
X144943200Y-100340800D01*
X143052800Y-117348000D02*
X139801600Y-117348000D01*
X139801600Y-117348000D02*
X138627890Y-118521710D01*
X147305315Y-117348000D02*
X148200010Y-118242695D01*
X143052800Y-117348000D02*
X147305315Y-117348000D01*
X146050000Y-117348000D02*
X144322800Y-119075200D01*
X147305315Y-117348000D02*
X146050000Y-117348000D01*
X148114820Y-113487200D02*
X148200010Y-113402010D01*
X145338800Y-113487200D02*
X148114820Y-113487200D01*
D25*
X148200010Y-109406790D02*
X148200010Y-113402010D01*
D22*
X145338800Y-113487200D02*
X145338800Y-112487200D01*
X144943200Y-103011600D02*
X144943200Y-107086400D01*
X146231937Y-101722863D02*
X148054483Y-101722863D01*
X144943200Y-103011600D02*
X146231937Y-101722863D01*
X94183200Y-95309410D02*
X94183200Y-101062200D01*
X106181790Y-91144990D02*
X98347620Y-91144990D01*
X107950000Y-89376780D02*
X97821220Y-89376780D01*
X106181790Y-91144990D02*
X107950000Y-89376780D01*
X98803810Y-124766990D02*
X94845790Y-124766990D01*
X99159410Y-124766990D02*
X98803810Y-124766990D01*
X103636380Y-121666000D02*
X110998000Y-121666000D01*
X100535390Y-124766990D02*
X103636380Y-121666000D01*
X94845790Y-124766990D02*
X100535390Y-124766990D01*
X148793200Y-112808820D02*
X148200010Y-113402010D01*
X116500000Y-102640000D02*
X116500000Y-101482800D01*
X118700010Y-99282790D02*
X118700010Y-96336390D01*
X116500000Y-101482800D02*
X118700010Y-99282790D01*
X118700010Y-96336390D02*
X117563630Y-95200010D01*
X110236810Y-95200010D02*
X106181790Y-91144990D01*
X107950000Y-91148390D02*
X110438390Y-93636780D01*
X107950000Y-89376780D02*
X107950000Y-91148390D01*
X110438390Y-93636780D02*
X110438390Y-95200010D01*
X110438390Y-95200010D02*
X110236810Y-95200010D01*
X107950000Y-89376780D02*
X109747580Y-89376780D01*
X111911590Y-95109980D02*
X111911590Y-95200010D01*
X109747580Y-92945970D02*
X111911590Y-95109980D01*
X109747580Y-89376780D02*
X109747580Y-92945970D01*
X111911590Y-95200010D02*
X110438390Y-95200010D01*
X117563630Y-95200010D02*
X111911590Y-95200010D01*
X144943200Y-105805600D02*
X148793200Y-101955600D01*
X144943200Y-107086400D02*
X144943200Y-105805600D01*
X148793200Y-100330000D02*
X148793200Y-101955600D01*
X145542000Y-107086400D02*
X148793200Y-103835200D01*
X144943200Y-107086400D02*
X145542000Y-107086400D01*
X148793200Y-101955600D02*
X148793200Y-103835200D01*
X145400400Y-106629200D02*
X144943200Y-107086400D01*
X148793200Y-103835200D02*
X148793200Y-106629200D01*
X148793200Y-109423200D02*
X145999200Y-106629200D01*
X148793200Y-110337600D02*
X148793200Y-109423200D01*
X145999200Y-106629200D02*
X145400400Y-106629200D01*
X148793200Y-106629200D02*
X145999200Y-106629200D01*
X148793200Y-106629200D02*
X148793200Y-110337600D01*
X148793200Y-110337600D02*
X148793200Y-112808820D01*
X144943200Y-112091600D02*
X145338800Y-112487200D01*
X145338800Y-112268000D02*
X148200010Y-109406790D01*
X145338800Y-113487200D02*
X145338800Y-112268000D01*
X145038810Y-115361990D02*
X143052800Y-117348000D01*
X145038810Y-112575927D02*
X145038810Y-115361990D01*
X144943200Y-112480317D02*
X145038810Y-112575927D01*
X144943200Y-108904400D02*
X144943200Y-112480317D01*
X144943200Y-107086400D02*
X144943200Y-108904400D01*
X144943200Y-108904400D02*
X144943200Y-112091600D01*
X144424400Y-117348000D02*
X148200010Y-113572390D01*
X143052800Y-117348000D02*
X144424400Y-117348000D01*
D25*
X148200010Y-113572390D02*
X148200010Y-118242695D01*
X148200010Y-113402010D02*
X148200010Y-113572390D01*
D22*
X138627890Y-118521710D02*
X138627890Y-120045710D01*
X138627890Y-120045710D02*
X138627890Y-122981490D01*
X94845790Y-124766990D02*
X99163790Y-124766990D01*
X94845790Y-124766990D02*
X95607790Y-124766990D01*
X94881284Y-124802484D02*
X94845790Y-124766990D01*
X114871916Y-124802484D02*
X94881284Y-124802484D01*
D25*
X111137284Y-124802484D02*
X114871916Y-124802484D01*
X114871916Y-124802484D02*
X145186706Y-124802484D01*
D22*
X97366000Y-102945000D02*
X97366000Y-102532000D01*
X97241700Y-102067700D02*
X95188700Y-102067700D01*
X97366000Y-102192000D02*
X97241700Y-102067700D01*
X97366000Y-102945000D02*
X97366000Y-102192000D01*
X94183200Y-101062200D02*
X95188700Y-102067700D01*
X97366000Y-102945000D02*
X97366000Y-105427600D01*
X95798791Y-106994809D02*
X94985991Y-106994809D01*
X97366000Y-105427600D02*
X95798791Y-106994809D01*
X96831382Y-102945000D02*
X94985991Y-104790391D01*
X97366000Y-102945000D02*
X96831382Y-102945000D01*
D25*
X94985991Y-104790391D02*
X94985991Y-106994809D01*
X94985991Y-103489609D02*
X94985991Y-104790391D01*
D22*
X95428009Y-103489609D02*
X97366000Y-105427600D01*
X94985991Y-103489609D02*
X95428009Y-103489609D01*
X94137512Y-90692556D02*
X94137512Y-91333288D01*
X95453288Y-89376780D02*
X94137512Y-90692556D01*
X94183200Y-91378976D02*
X94183200Y-95309410D01*
X94137512Y-91333288D02*
X94183200Y-91378976D01*
X96012000Y-91186000D02*
X97821220Y-89376780D01*
X95961200Y-91135200D02*
X96012000Y-91186000D01*
X94081600Y-91135200D02*
X95961200Y-91135200D01*
X93573600Y-91643200D02*
X94081600Y-91135200D01*
X93573600Y-113374800D02*
X93573600Y-91643200D01*
X97739200Y-117540400D02*
X93573600Y-113374800D01*
X95254305Y-91842095D02*
X95961200Y-91135200D01*
X95254305Y-94238305D02*
X95254305Y-91842095D01*
X98347620Y-91144990D02*
X95254305Y-94238305D01*
X95254305Y-94238305D02*
X94183200Y-95309410D01*
X93929200Y-91643200D02*
X96195620Y-89376780D01*
X93573600Y-91643200D02*
X93929200Y-91643200D01*
X96195620Y-89376780D02*
X95453288Y-89376780D01*
X97821220Y-89376780D02*
X96195620Y-89376780D01*
X140481380Y-120620000D02*
X141828290Y-119273090D01*
X128620000Y-120620000D02*
X140481380Y-120620000D01*
X119649710Y-120045710D02*
X138627890Y-120045710D01*
X116444000Y-116840000D02*
X119649710Y-120045710D01*
X95077582Y-111607600D02*
X94985991Y-111699191D01*
X97739200Y-111607600D02*
X95077582Y-111607600D01*
%TO.N,Net-(J1-Pad2)*%
X99953000Y-99445000D02*
X100711000Y-100203000D01*
X100711000Y-100203000D02*
X100711000Y-107315000D01*
D25*
X97366000Y-99445000D02*
X99953000Y-99445000D01*
D24*
X100461000Y-99953000D02*
X99953000Y-99445000D01*
X100461000Y-107565000D02*
X100461000Y-99953000D01*
X97786001Y-109060799D02*
X97786001Y-109107600D01*
X99281800Y-107565000D02*
X97786001Y-109060799D01*
X100461000Y-107565000D02*
X99281800Y-107565000D01*
%TD*%
D26*
%TO.N,GND*%
X152048000Y-126140000D02*
X87728000Y-126140000D01*
X87728000Y-122719159D01*
X89801066Y-122719159D01*
X89801066Y-123102041D01*
X89875763Y-123477566D01*
X90022285Y-123831303D01*
X90235003Y-124149658D01*
X90505742Y-124420397D01*
X90824097Y-124633115D01*
X91177834Y-124779637D01*
X91553359Y-124854334D01*
X91936241Y-124854334D01*
X92311766Y-124779637D01*
X92665503Y-124633115D01*
X92983858Y-124420397D01*
X93254597Y-124149658D01*
X93467315Y-123831303D01*
X93613837Y-123477566D01*
X93688534Y-123102041D01*
X93688534Y-122719159D01*
X93613837Y-122343634D01*
X93471223Y-121999330D01*
X109705278Y-121999330D01*
X109795147Y-122245123D01*
X109931241Y-122468660D01*
X110108330Y-122661351D01*
X110319608Y-122815792D01*
X110556956Y-122926047D01*
X110664671Y-122958716D01*
X110871000Y-122835374D01*
X110871000Y-121793000D01*
X111125000Y-121793000D01*
X111125000Y-122835374D01*
X111331329Y-122958716D01*
X111439044Y-122926047D01*
X111676392Y-122815792D01*
X111808587Y-122719159D01*
X146290666Y-122719159D01*
X146290666Y-123102041D01*
X146365363Y-123477566D01*
X146511885Y-123831303D01*
X146724603Y-124149658D01*
X146995342Y-124420397D01*
X147313697Y-124633115D01*
X147667434Y-124779637D01*
X148042959Y-124854334D01*
X148425841Y-124854334D01*
X148801366Y-124779637D01*
X149155103Y-124633115D01*
X149473458Y-124420397D01*
X149744197Y-124149658D01*
X149956915Y-123831303D01*
X150103437Y-123477566D01*
X150178134Y-123102041D01*
X150178134Y-122719159D01*
X150103437Y-122343634D01*
X149956915Y-121989897D01*
X149744197Y-121671542D01*
X149473458Y-121400803D01*
X149155103Y-121188085D01*
X148801366Y-121041563D01*
X148425841Y-120966866D01*
X148042959Y-120966866D01*
X147667434Y-121041563D01*
X147313697Y-121188085D01*
X146995342Y-121400803D01*
X146724603Y-121671542D01*
X146511885Y-121989897D01*
X146365363Y-122343634D01*
X146290666Y-122719159D01*
X111808587Y-122719159D01*
X111887670Y-122661351D01*
X112064759Y-122468660D01*
X112200853Y-122245123D01*
X112290722Y-121999330D01*
X112168201Y-121793000D01*
X111125000Y-121793000D01*
X110871000Y-121793000D01*
X109827799Y-121793000D01*
X109705278Y-121999330D01*
X93471223Y-121999330D01*
X93467315Y-121989897D01*
X93254597Y-121671542D01*
X92983858Y-121400803D01*
X92665503Y-121188085D01*
X92311766Y-121041563D01*
X91936241Y-120966866D01*
X91553359Y-120966866D01*
X91177834Y-121041563D01*
X90824097Y-121188085D01*
X90505742Y-121400803D01*
X90235003Y-121671542D01*
X90022285Y-121989897D01*
X89875763Y-122343634D01*
X89801066Y-122719159D01*
X87728000Y-122719159D01*
X87728000Y-88937159D01*
X89801066Y-88937159D01*
X89801066Y-89320041D01*
X89875763Y-89695566D01*
X90022285Y-90049303D01*
X90235003Y-90367658D01*
X90505742Y-90638397D01*
X90824097Y-90851115D01*
X91177834Y-90997637D01*
X91553359Y-91072334D01*
X91936241Y-91072334D01*
X92311766Y-90997637D01*
X92665503Y-90851115D01*
X92983858Y-90638397D01*
X93254597Y-90367658D01*
X93467315Y-90049303D01*
X93613837Y-89695566D01*
X93655800Y-89484604D01*
X94030801Y-89484604D01*
X94132518Y-121432867D01*
X94134963Y-121457270D01*
X94142196Y-121481093D01*
X94153938Y-121503047D01*
X94169737Y-121522288D01*
X94188986Y-121538077D01*
X94210945Y-121549808D01*
X94234772Y-121557029D01*
X94259549Y-121559463D01*
X145262749Y-121546763D01*
X145276603Y-121546002D01*
X145300964Y-121540867D01*
X145323856Y-121531078D01*
X145344397Y-121517012D01*
X145361800Y-121499208D01*
X145375395Y-121478351D01*
X146594478Y-119133788D01*
X146606406Y-119099741D01*
X146608800Y-119074959D01*
X146558000Y-92252559D01*
X146555560Y-92228024D01*
X146548333Y-92204199D01*
X146536597Y-92182243D01*
X146520803Y-92162997D01*
X146501557Y-92147203D01*
X146479601Y-92135467D01*
X146455776Y-92128240D01*
X146431000Y-92125800D01*
X144094200Y-92125800D01*
X144094200Y-89458800D01*
X144091747Y-89433960D01*
X144084508Y-89410139D01*
X144072761Y-89388189D01*
X144056957Y-89368952D01*
X144037704Y-89353167D01*
X144015741Y-89341443D01*
X143991913Y-89334228D01*
X143967135Y-89331800D01*
X94157735Y-89357200D01*
X94132627Y-89359720D01*
X94108826Y-89367023D01*
X94086907Y-89378829D01*
X94067712Y-89394684D01*
X94051979Y-89413979D01*
X94040313Y-89435973D01*
X94033162Y-89459820D01*
X94030801Y-89484604D01*
X93655800Y-89484604D01*
X93688534Y-89320041D01*
X93688534Y-88937159D01*
X146290666Y-88937159D01*
X146290666Y-89320041D01*
X146365363Y-89695566D01*
X146511885Y-90049303D01*
X146724603Y-90367658D01*
X146995342Y-90638397D01*
X147313697Y-90851115D01*
X147667434Y-90997637D01*
X148042959Y-91072334D01*
X148425841Y-91072334D01*
X148801366Y-90997637D01*
X149155103Y-90851115D01*
X149473458Y-90638397D01*
X149744197Y-90367658D01*
X149956915Y-90049303D01*
X150103437Y-89695566D01*
X150178134Y-89320041D01*
X150178134Y-88937159D01*
X150103437Y-88561634D01*
X149956915Y-88207897D01*
X149744197Y-87889542D01*
X149473458Y-87618803D01*
X149155103Y-87406085D01*
X148801366Y-87259563D01*
X148425841Y-87184866D01*
X148042959Y-87184866D01*
X147667434Y-87259563D01*
X147313697Y-87406085D01*
X146995342Y-87618803D01*
X146724603Y-87889542D01*
X146511885Y-88207897D01*
X146365363Y-88561634D01*
X146290666Y-88937159D01*
X93688534Y-88937159D01*
X93613837Y-88561634D01*
X93467315Y-88207897D01*
X93254597Y-87889542D01*
X92983858Y-87618803D01*
X92665503Y-87406085D01*
X92311766Y-87259563D01*
X91936241Y-87184866D01*
X91553359Y-87184866D01*
X91177834Y-87259563D01*
X90824097Y-87406085D01*
X90505742Y-87618803D01*
X90235003Y-87889542D01*
X90022285Y-88207897D01*
X89875763Y-88561634D01*
X89801066Y-88937159D01*
X87728000Y-88937159D01*
X87728000Y-85848400D01*
X152048001Y-85848400D01*
X152048000Y-126140000D01*
%TA.AperFunction,Conductor*%
D27*
G36*
X152048000Y-126140000D02*
G01*
X87728000Y-126140000D01*
X87728000Y-122719159D01*
X89801066Y-122719159D01*
X89801066Y-123102041D01*
X89875763Y-123477566D01*
X90022285Y-123831303D01*
X90235003Y-124149658D01*
X90505742Y-124420397D01*
X90824097Y-124633115D01*
X91177834Y-124779637D01*
X91553359Y-124854334D01*
X91936241Y-124854334D01*
X92311766Y-124779637D01*
X92665503Y-124633115D01*
X92983858Y-124420397D01*
X93254597Y-124149658D01*
X93467315Y-123831303D01*
X93613837Y-123477566D01*
X93688534Y-123102041D01*
X93688534Y-122719159D01*
X93613837Y-122343634D01*
X93471223Y-121999330D01*
X109705278Y-121999330D01*
X109795147Y-122245123D01*
X109931241Y-122468660D01*
X110108330Y-122661351D01*
X110319608Y-122815792D01*
X110556956Y-122926047D01*
X110664671Y-122958716D01*
X110871000Y-122835374D01*
X110871000Y-121793000D01*
X111125000Y-121793000D01*
X111125000Y-122835374D01*
X111331329Y-122958716D01*
X111439044Y-122926047D01*
X111676392Y-122815792D01*
X111808587Y-122719159D01*
X146290666Y-122719159D01*
X146290666Y-123102041D01*
X146365363Y-123477566D01*
X146511885Y-123831303D01*
X146724603Y-124149658D01*
X146995342Y-124420397D01*
X147313697Y-124633115D01*
X147667434Y-124779637D01*
X148042959Y-124854334D01*
X148425841Y-124854334D01*
X148801366Y-124779637D01*
X149155103Y-124633115D01*
X149473458Y-124420397D01*
X149744197Y-124149658D01*
X149956915Y-123831303D01*
X150103437Y-123477566D01*
X150178134Y-123102041D01*
X150178134Y-122719159D01*
X150103437Y-122343634D01*
X149956915Y-121989897D01*
X149744197Y-121671542D01*
X149473458Y-121400803D01*
X149155103Y-121188085D01*
X148801366Y-121041563D01*
X148425841Y-120966866D01*
X148042959Y-120966866D01*
X147667434Y-121041563D01*
X147313697Y-121188085D01*
X146995342Y-121400803D01*
X146724603Y-121671542D01*
X146511885Y-121989897D01*
X146365363Y-122343634D01*
X146290666Y-122719159D01*
X111808587Y-122719159D01*
X111887670Y-122661351D01*
X112064759Y-122468660D01*
X112200853Y-122245123D01*
X112290722Y-121999330D01*
X112168201Y-121793000D01*
X111125000Y-121793000D01*
X110871000Y-121793000D01*
X109827799Y-121793000D01*
X109705278Y-121999330D01*
X93471223Y-121999330D01*
X93467315Y-121989897D01*
X93254597Y-121671542D01*
X92983858Y-121400803D01*
X92665503Y-121188085D01*
X92311766Y-121041563D01*
X91936241Y-120966866D01*
X91553359Y-120966866D01*
X91177834Y-121041563D01*
X90824097Y-121188085D01*
X90505742Y-121400803D01*
X90235003Y-121671542D01*
X90022285Y-121989897D01*
X89875763Y-122343634D01*
X89801066Y-122719159D01*
X87728000Y-122719159D01*
X87728000Y-88937159D01*
X89801066Y-88937159D01*
X89801066Y-89320041D01*
X89875763Y-89695566D01*
X90022285Y-90049303D01*
X90235003Y-90367658D01*
X90505742Y-90638397D01*
X90824097Y-90851115D01*
X91177834Y-90997637D01*
X91553359Y-91072334D01*
X91936241Y-91072334D01*
X92311766Y-90997637D01*
X92665503Y-90851115D01*
X92983858Y-90638397D01*
X93254597Y-90367658D01*
X93467315Y-90049303D01*
X93613837Y-89695566D01*
X93655800Y-89484604D01*
X94030801Y-89484604D01*
X94132518Y-121432867D01*
X94134963Y-121457270D01*
X94142196Y-121481093D01*
X94153938Y-121503047D01*
X94169737Y-121522288D01*
X94188986Y-121538077D01*
X94210945Y-121549808D01*
X94234772Y-121557029D01*
X94259549Y-121559463D01*
X145262749Y-121546763D01*
X145276603Y-121546002D01*
X145300964Y-121540867D01*
X145323856Y-121531078D01*
X145344397Y-121517012D01*
X145361800Y-121499208D01*
X145375395Y-121478351D01*
X146594478Y-119133788D01*
X146606406Y-119099741D01*
X146608800Y-119074959D01*
X146558000Y-92252559D01*
X146555560Y-92228024D01*
X146548333Y-92204199D01*
X146536597Y-92182243D01*
X146520803Y-92162997D01*
X146501557Y-92147203D01*
X146479601Y-92135467D01*
X146455776Y-92128240D01*
X146431000Y-92125800D01*
X144094200Y-92125800D01*
X144094200Y-89458800D01*
X144091747Y-89433960D01*
X144084508Y-89410139D01*
X144072761Y-89388189D01*
X144056957Y-89368952D01*
X144037704Y-89353167D01*
X144015741Y-89341443D01*
X143991913Y-89334228D01*
X143967135Y-89331800D01*
X94157735Y-89357200D01*
X94132627Y-89359720D01*
X94108826Y-89367023D01*
X94086907Y-89378829D01*
X94067712Y-89394684D01*
X94051979Y-89413979D01*
X94040313Y-89435973D01*
X94033162Y-89459820D01*
X94030801Y-89484604D01*
X93655800Y-89484604D01*
X93688534Y-89320041D01*
X93688534Y-88937159D01*
X146290666Y-88937159D01*
X146290666Y-89320041D01*
X146365363Y-89695566D01*
X146511885Y-90049303D01*
X146724603Y-90367658D01*
X146995342Y-90638397D01*
X147313697Y-90851115D01*
X147667434Y-90997637D01*
X148042959Y-91072334D01*
X148425841Y-91072334D01*
X148801366Y-90997637D01*
X149155103Y-90851115D01*
X149473458Y-90638397D01*
X149744197Y-90367658D01*
X149956915Y-90049303D01*
X150103437Y-89695566D01*
X150178134Y-89320041D01*
X150178134Y-88937159D01*
X150103437Y-88561634D01*
X149956915Y-88207897D01*
X149744197Y-87889542D01*
X149473458Y-87618803D01*
X149155103Y-87406085D01*
X148801366Y-87259563D01*
X148425841Y-87184866D01*
X148042959Y-87184866D01*
X147667434Y-87259563D01*
X147313697Y-87406085D01*
X146995342Y-87618803D01*
X146724603Y-87889542D01*
X146511885Y-88207897D01*
X146365363Y-88561634D01*
X146290666Y-88937159D01*
X93688534Y-88937159D01*
X93613837Y-88561634D01*
X93467315Y-88207897D01*
X93254597Y-87889542D01*
X92983858Y-87618803D01*
X92665503Y-87406085D01*
X92311766Y-87259563D01*
X91936241Y-87184866D01*
X91553359Y-87184866D01*
X91177834Y-87259563D01*
X90824097Y-87406085D01*
X90505742Y-87618803D01*
X90235003Y-87889542D01*
X90022285Y-88207897D01*
X89875763Y-88561634D01*
X89801066Y-88937159D01*
X87728000Y-88937159D01*
X87728000Y-85848400D01*
X152048001Y-85848400D01*
X152048000Y-126140000D01*
G37*
%TD.AperFunction*%
%TD*%
M02*
