%TF.GenerationSoftware,KiCad,Pcbnew,5.1.12*%
%TF.CreationDate,2021-12-29T22:49:18+01:00*%
%TF.ProjectId,AGC,4147432e-6b69-4636-9164-5f7063625858,rev?*%
%TF.SameCoordinates,Original*%
%TF.FileFunction,OtherDrawing,Comment*%
%FSLAX46Y46*%
G04 Gerber Fmt 4.6, Leading zero omitted, Abs format (unit mm)*
G04 Created by KiCad (PCBNEW 5.1.12) date 2021-12-29 22:49:18*
%MOMM*%
%LPD*%
G01*
G04 APERTURE LIST*
%ADD10C,0.150000*%
G04 APERTURE END LIST*
D10*
X92523809Y-131562380D02*
X93142857Y-131562380D01*
X92809523Y-131943333D01*
X92952380Y-131943333D01*
X93047619Y-131990952D01*
X93095238Y-132038571D01*
X93142857Y-132133809D01*
X93142857Y-132371904D01*
X93095238Y-132467142D01*
X93047619Y-132514761D01*
X92952380Y-132562380D01*
X92666666Y-132562380D01*
X92571428Y-132514761D01*
X92523809Y-132467142D01*
X93619047Y-132514761D02*
X93619047Y-132562380D01*
X93571428Y-132657619D01*
X93523809Y-132705238D01*
X94000000Y-131657619D02*
X94047619Y-131610000D01*
X94142857Y-131562380D01*
X94380952Y-131562380D01*
X94476190Y-131610000D01*
X94523809Y-131657619D01*
X94571428Y-131752857D01*
X94571428Y-131848095D01*
X94523809Y-131990952D01*
X93952380Y-132562380D01*
X94571428Y-132562380D01*
X95761904Y-132562380D02*
X95761904Y-131895714D01*
X96047619Y-132419523D01*
X96333333Y-131895714D01*
X96333333Y-132562380D01*
X96809523Y-132562380D02*
X96809523Y-131895714D01*
X97095238Y-132419523D01*
X97380952Y-131895714D01*
X97380952Y-132562380D01*
X90163662Y-130810000D02*
X93325938Y-130810000D01*
X90163662Y-122910600D02*
X90163662Y-131396421D01*
X93325938Y-122910600D02*
X93325938Y-131396421D01*
X93325938Y-130810000D02*
X92199434Y-131396421D01*
X93325938Y-130810000D02*
X92199434Y-130223579D01*
X90163662Y-130810000D02*
X91290166Y-131396421D01*
X90163662Y-130810000D02*
X91290166Y-130223579D01*
X78924285Y-102613247D02*
X78257619Y-102613247D01*
X79305238Y-102375152D02*
X78590952Y-102137057D01*
X78590952Y-102756104D01*
X79257619Y-103327533D02*
X79257619Y-103422771D01*
X79210000Y-103518009D01*
X79162380Y-103565628D01*
X79067142Y-103613247D01*
X78876666Y-103660866D01*
X78638571Y-103660866D01*
X78448095Y-103613247D01*
X78352857Y-103565628D01*
X78305238Y-103518009D01*
X78257619Y-103422771D01*
X78257619Y-103327533D01*
X78305238Y-103232295D01*
X78352857Y-103184676D01*
X78448095Y-103137057D01*
X78638571Y-103089438D01*
X78876666Y-103089438D01*
X79067142Y-103137057D01*
X79162380Y-103184676D01*
X79210000Y-103232295D01*
X79257619Y-103327533D01*
X78305238Y-104137057D02*
X78257619Y-104137057D01*
X78162380Y-104089438D01*
X78114761Y-104041819D01*
X78257619Y-104613247D02*
X78257619Y-104803723D01*
X78305238Y-104898961D01*
X78352857Y-104946580D01*
X78495714Y-105041819D01*
X78686190Y-105089438D01*
X79067142Y-105089438D01*
X79162380Y-105041819D01*
X79210000Y-104994200D01*
X79257619Y-104898961D01*
X79257619Y-104708485D01*
X79210000Y-104613247D01*
X79162380Y-104565628D01*
X79067142Y-104518009D01*
X78829047Y-104518009D01*
X78733809Y-104565628D01*
X78686190Y-104613247D01*
X78638571Y-104708485D01*
X78638571Y-104898961D01*
X78686190Y-104994200D01*
X78733809Y-105041819D01*
X78829047Y-105089438D01*
X78257619Y-105565628D02*
X78257619Y-105756104D01*
X78305238Y-105851342D01*
X78352857Y-105898961D01*
X78495714Y-105994200D01*
X78686190Y-106041819D01*
X79067142Y-106041819D01*
X79162380Y-105994200D01*
X79210000Y-105946580D01*
X79257619Y-105851342D01*
X79257619Y-105660866D01*
X79210000Y-105565628D01*
X79162380Y-105518009D01*
X79067142Y-105470390D01*
X78829047Y-105470390D01*
X78733809Y-105518009D01*
X78686190Y-105565628D01*
X78638571Y-105660866D01*
X78638571Y-105851342D01*
X78686190Y-105946580D01*
X78733809Y-105994200D01*
X78829047Y-106041819D01*
X79257619Y-106898961D02*
X79257619Y-106708485D01*
X79210000Y-106613247D01*
X79162380Y-106565628D01*
X79019523Y-106470390D01*
X78829047Y-106422771D01*
X78448095Y-106422771D01*
X78352857Y-106470390D01*
X78305238Y-106518009D01*
X78257619Y-106613247D01*
X78257619Y-106803723D01*
X78305238Y-106898961D01*
X78352857Y-106946580D01*
X78448095Y-106994200D01*
X78686190Y-106994200D01*
X78781428Y-106946580D01*
X78829047Y-106898961D01*
X78876666Y-106803723D01*
X78876666Y-106613247D01*
X78829047Y-106518009D01*
X78781428Y-106470390D01*
X78686190Y-106422771D01*
X78257619Y-108184676D02*
X78924285Y-108184676D01*
X78400476Y-108470390D01*
X78924285Y-108756104D01*
X78257619Y-108756104D01*
X78257619Y-109232295D02*
X78924285Y-109232295D01*
X78400476Y-109518009D01*
X78924285Y-109803723D01*
X78257619Y-109803723D01*
X80010000Y-85496400D02*
X80010000Y-126492000D01*
X87376000Y-85496400D02*
X79423579Y-85496400D01*
X87376000Y-126492000D02*
X79423579Y-126492000D01*
X80010000Y-126492000D02*
X79423579Y-125365496D01*
X80010000Y-126492000D02*
X80596421Y-125365496D01*
X80010000Y-85496400D02*
X79423579Y-86622904D01*
X80010000Y-85496400D02*
X80596421Y-86622904D01*
X116507047Y-76257380D02*
X116316571Y-76257380D01*
X116221333Y-76305000D01*
X116173714Y-76352619D01*
X116078476Y-76495476D01*
X116030857Y-76685952D01*
X116030857Y-77066904D01*
X116078476Y-77162142D01*
X116126095Y-77209761D01*
X116221333Y-77257380D01*
X116411809Y-77257380D01*
X116507047Y-77209761D01*
X116554666Y-77162142D01*
X116602285Y-77066904D01*
X116602285Y-76828809D01*
X116554666Y-76733571D01*
X116507047Y-76685952D01*
X116411809Y-76638333D01*
X116221333Y-76638333D01*
X116126095Y-76685952D01*
X116078476Y-76733571D01*
X116030857Y-76828809D01*
X117507047Y-76257380D02*
X117030857Y-76257380D01*
X116983238Y-76733571D01*
X117030857Y-76685952D01*
X117126095Y-76638333D01*
X117364190Y-76638333D01*
X117459428Y-76685952D01*
X117507047Y-76733571D01*
X117554666Y-76828809D01*
X117554666Y-77066904D01*
X117507047Y-77162142D01*
X117459428Y-77209761D01*
X117364190Y-77257380D01*
X117126095Y-77257380D01*
X117030857Y-77209761D01*
X116983238Y-77162142D01*
X118030857Y-77209761D02*
X118030857Y-77257380D01*
X117983238Y-77352619D01*
X117935619Y-77400238D01*
X118649904Y-76257380D02*
X118745142Y-76257380D01*
X118840380Y-76305000D01*
X118888000Y-76352619D01*
X118935619Y-76447857D01*
X118983238Y-76638333D01*
X118983238Y-76876428D01*
X118935619Y-77066904D01*
X118888000Y-77162142D01*
X118840380Y-77209761D01*
X118745142Y-77257380D01*
X118649904Y-77257380D01*
X118554666Y-77209761D01*
X118507047Y-77162142D01*
X118459428Y-77066904D01*
X118411809Y-76876428D01*
X118411809Y-76638333D01*
X118459428Y-76447857D01*
X118507047Y-76352619D01*
X118554666Y-76305000D01*
X118649904Y-76257380D01*
X119364190Y-76352619D02*
X119411809Y-76305000D01*
X119507047Y-76257380D01*
X119745142Y-76257380D01*
X119840380Y-76305000D01*
X119888000Y-76352619D01*
X119935619Y-76447857D01*
X119935619Y-76543095D01*
X119888000Y-76685952D01*
X119316571Y-77257380D01*
X119935619Y-77257380D01*
X120792761Y-76590714D02*
X120792761Y-77257380D01*
X120554666Y-76209761D02*
X120316571Y-76924047D01*
X120935619Y-76924047D01*
X122078476Y-77257380D02*
X122078476Y-76590714D01*
X122364190Y-77114523D01*
X122649904Y-76590714D01*
X122649904Y-77257380D01*
X123126095Y-77257380D02*
X123126095Y-76590714D01*
X123411809Y-77114523D01*
X123697523Y-76590714D01*
X123697523Y-77257380D01*
X87376000Y-78105000D02*
X152400000Y-78105000D01*
X87376000Y-85496400D02*
X87376000Y-77518579D01*
X152400000Y-85496400D02*
X152400000Y-77518579D01*
X152400000Y-78105000D02*
X151273496Y-78691421D01*
X152400000Y-78105000D02*
X151273496Y-77518579D01*
X87376000Y-78105000D02*
X88502504Y-78691421D01*
X87376000Y-78105000D02*
X88502504Y-77518579D01*
X81281346Y-109921382D02*
X81282276Y-109302335D01*
X81662727Y-109636241D01*
X81662942Y-109493384D01*
X81710704Y-109398217D01*
X81758394Y-109350670D01*
X81853704Y-109303194D01*
X82091799Y-109303552D01*
X82186965Y-109351314D01*
X82234513Y-109399004D01*
X82281989Y-109494314D01*
X82281559Y-109780028D01*
X82233797Y-109875194D01*
X82186107Y-109922742D01*
X81282777Y-108969002D02*
X81283707Y-108349955D01*
X81664158Y-108683861D01*
X81664373Y-108541004D01*
X81712135Y-108445837D01*
X81759825Y-108398290D01*
X81855135Y-108350814D01*
X82093230Y-108351172D01*
X82188396Y-108398934D01*
X82235944Y-108446624D01*
X82283420Y-108541934D01*
X82282990Y-108827648D01*
X82235228Y-108922814D01*
X82187538Y-108970362D01*
X82236802Y-107875196D02*
X82284421Y-107875268D01*
X82379588Y-107923030D01*
X82427135Y-107970721D01*
X81713852Y-107302981D02*
X81666090Y-107398148D01*
X81618399Y-107445695D01*
X81523090Y-107493171D01*
X81475471Y-107493100D01*
X81380304Y-107445338D01*
X81332757Y-107397647D01*
X81285281Y-107302337D01*
X81285567Y-107111861D01*
X81333329Y-107016695D01*
X81381020Y-106969148D01*
X81476330Y-106921672D01*
X81523949Y-106921743D01*
X81619115Y-106969505D01*
X81666662Y-107017196D01*
X81714138Y-107112505D01*
X81713852Y-107302981D01*
X81761328Y-107398291D01*
X81808875Y-107445982D01*
X81904042Y-107493744D01*
X82094518Y-107494030D01*
X82189827Y-107446554D01*
X82237518Y-107399007D01*
X82285280Y-107303840D01*
X82285566Y-107113364D01*
X82238090Y-107018055D01*
X82190543Y-106970364D01*
X82095376Y-106922602D01*
X81904900Y-106922316D01*
X81809591Y-106969792D01*
X81761900Y-107017339D01*
X81714138Y-107112505D01*
X81286784Y-106302339D02*
X81286927Y-106207101D01*
X81334689Y-106111934D01*
X81382380Y-106064387D01*
X81477689Y-106016911D01*
X81668237Y-105969578D01*
X81906332Y-105969936D01*
X82096736Y-106017841D01*
X82191902Y-106065603D01*
X82239450Y-106113294D01*
X82286926Y-106208603D01*
X82286783Y-106303841D01*
X82239021Y-106399008D01*
X82191330Y-106446555D01*
X82096020Y-106494031D01*
X81905473Y-106541364D01*
X81667378Y-106541006D01*
X81476974Y-106493101D01*
X81381807Y-106445339D01*
X81334260Y-106397648D01*
X81286784Y-106302339D01*
X81287786Y-105635673D02*
X81288787Y-104969007D01*
X82288142Y-105399080D01*
X82290503Y-103827654D02*
X81623837Y-103826652D01*
X82148076Y-103541725D01*
X81624696Y-103255224D01*
X82291362Y-103256226D01*
X82292078Y-102780036D02*
X81625412Y-102779034D01*
X82149650Y-102494107D01*
X81626270Y-102207606D01*
X82292936Y-102208608D01*
X83160231Y-89115701D02*
X83109431Y-122923101D01*
X91744800Y-89128600D02*
X82573811Y-89114819D01*
X91694000Y-122936000D02*
X82523011Y-122922219D01*
X83109431Y-122923101D02*
X82524704Y-121795717D01*
X83109431Y-122923101D02*
X83697544Y-121797480D01*
X83160231Y-89115701D02*
X82572118Y-90241322D01*
X83160231Y-89115701D02*
X83744958Y-90243085D01*
X116656266Y-79330780D02*
X116180076Y-79330780D01*
X116132457Y-79806971D01*
X116180076Y-79759352D01*
X116275314Y-79711733D01*
X116513409Y-79711733D01*
X116608647Y-79759352D01*
X116656266Y-79806971D01*
X116703885Y-79902209D01*
X116703885Y-80140304D01*
X116656266Y-80235542D01*
X116608647Y-80283161D01*
X116513409Y-80330780D01*
X116275314Y-80330780D01*
X116180076Y-80283161D01*
X116132457Y-80235542D01*
X117561028Y-79330780D02*
X117370552Y-79330780D01*
X117275314Y-79378400D01*
X117227695Y-79426019D01*
X117132457Y-79568876D01*
X117084838Y-79759352D01*
X117084838Y-80140304D01*
X117132457Y-80235542D01*
X117180076Y-80283161D01*
X117275314Y-80330780D01*
X117465790Y-80330780D01*
X117561028Y-80283161D01*
X117608647Y-80235542D01*
X117656266Y-80140304D01*
X117656266Y-79902209D01*
X117608647Y-79806971D01*
X117561028Y-79759352D01*
X117465790Y-79711733D01*
X117275314Y-79711733D01*
X117180076Y-79759352D01*
X117132457Y-79806971D01*
X117084838Y-79902209D01*
X118132457Y-80283161D02*
X118132457Y-80330780D01*
X118084838Y-80426019D01*
X118037219Y-80473638D01*
X119037219Y-79330780D02*
X118561028Y-79330780D01*
X118513409Y-79806971D01*
X118561028Y-79759352D01*
X118656266Y-79711733D01*
X118894361Y-79711733D01*
X118989600Y-79759352D01*
X119037219Y-79806971D01*
X119084838Y-79902209D01*
X119084838Y-80140304D01*
X119037219Y-80235542D01*
X118989600Y-80283161D01*
X118894361Y-80330780D01*
X118656266Y-80330780D01*
X118561028Y-80283161D01*
X118513409Y-80235542D01*
X119561028Y-80330780D02*
X119751504Y-80330780D01*
X119846742Y-80283161D01*
X119894361Y-80235542D01*
X119989600Y-80092685D01*
X120037219Y-79902209D01*
X120037219Y-79521257D01*
X119989600Y-79426019D01*
X119941980Y-79378400D01*
X119846742Y-79330780D01*
X119656266Y-79330780D01*
X119561028Y-79378400D01*
X119513409Y-79426019D01*
X119465790Y-79521257D01*
X119465790Y-79759352D01*
X119513409Y-79854590D01*
X119561028Y-79902209D01*
X119656266Y-79949828D01*
X119846742Y-79949828D01*
X119941980Y-79902209D01*
X119989600Y-79854590D01*
X120037219Y-79759352D01*
X120989600Y-80330780D02*
X120418171Y-80330780D01*
X120703885Y-80330780D02*
X120703885Y-79330780D01*
X120608647Y-79473638D01*
X120513409Y-79568876D01*
X120418171Y-79616495D01*
X122180076Y-80330780D02*
X122180076Y-79664114D01*
X122465790Y-80187923D01*
X122751504Y-79664114D01*
X122751504Y-80330780D01*
X123227695Y-80330780D02*
X123227695Y-79664114D01*
X123513409Y-80187923D01*
X123799123Y-79664114D01*
X123799123Y-80330780D01*
X91694000Y-81178400D02*
X148285200Y-81178400D01*
X91694000Y-89103200D02*
X91694000Y-80591979D01*
X148285200Y-89103200D02*
X148285200Y-80591979D01*
X148285200Y-81178400D02*
X147158696Y-81764821D01*
X148285200Y-81178400D02*
X147158696Y-80591979D01*
X91694000Y-81178400D02*
X92820504Y-81764821D01*
X91694000Y-81178400D02*
X92820504Y-80591979D01*
M02*
